<svg xmlns="http://www.w3.org/2000/svg" xmlns:xlink="http://www.w3.org/1999/xlink" width="500" zoomAndPan="magnify" viewBox="0 0 375 374.999991" height="500" preserveAspectRatio="xMidYMid meet" version="1.0"><defs><g/><clipPath id="7d9199a156"><path d="M 144 119 L 263 119 L 263 236 L 144 236 Z M 144 119 " clip-rule="nonzero"/></clipPath><clipPath id="dfc37270e7"><path d="M 103.046875 233.863281 L 147.238281 88.167969 L 272.121094 126.042969 L 227.929688 271.738281 Z M 103.046875 233.863281 " clip-rule="nonzero"/></clipPath><clipPath id="121b6c9472"><path d="M 103.046875 233.863281 L 147.238281 88.167969 L 272.121094 126.042969 L 227.929688 271.738281 Z M 103.046875 233.863281 " clip-rule="nonzero"/></clipPath><clipPath id="58667d01d4"><path d="M 166 160 L 258 160 L 258 237 L 166 237 Z M 166 160 " clip-rule="nonzero"/></clipPath><clipPath id="4aadf8314a"><path d="M 103.046875 233.863281 L 147.238281 88.167969 L 272.121094 126.042969 L 227.929688 271.738281 Z M 103.046875 233.863281 " clip-rule="nonzero"/></clipPath><clipPath id="c8e14b1c48"><path d="M 103.046875 233.863281 L 147.238281 88.167969 L 272.121094 126.042969 L 227.929688 271.738281 Z M 103.046875 233.863281 " clip-rule="nonzero"/></clipPath><clipPath id="dc9ce1e4b1"><path d="M 105 226 L 163 226 L 163 243 L 105 243 Z M 105 226 " clip-rule="nonzero"/></clipPath><clipPath id="789d4bb699"><path d="M 103.046875 233.863281 L 147.238281 88.167969 L 272.121094 126.042969 L 227.929688 271.738281 Z M 103.046875 233.863281 " clip-rule="nonzero"/></clipPath><clipPath id="254c66553c"><path d="M 103.046875 233.863281 L 147.238281 88.167969 L 272.121094 126.042969 L 227.929688 271.738281 Z M 103.046875 233.863281 " clip-rule="nonzero"/></clipPath><clipPath id="e43cbb8710"><path d="M 222 195 L 247 195 L 247 228 L 222 228 Z M 222 195 " clip-rule="nonzero"/></clipPath><clipPath id="5bffaef980"><path d="M 103.046875 233.863281 L 147.238281 88.167969 L 272.121094 126.042969 L 227.929688 271.738281 Z M 103.046875 233.863281 " clip-rule="nonzero"/></clipPath><clipPath id="b67b1189be"><path d="M 103.046875 233.863281 L 147.238281 88.167969 L 272.121094 126.042969 L 227.929688 271.738281 Z M 103.046875 233.863281 " clip-rule="nonzero"/></clipPath></defs><g clip-path="url(#7d9199a156)"><g clip-path="url(#dfc37270e7)"><g clip-path="url(#121b6c9472)"><path fill="#00a8a8" d="M 145.472656 228.230469 C 147.066406 228.476562 154.375 228.738281 156.164062 228.410156 C 157.492188 228.09375 158.847656 227.648438 159.980469 227.121094 C 161.726562 226.265625 163.390625 225.324219 164.972656 224.164062 C 166.496094 223.191406 167.945312 222.003906 169.277344 220.820312 C 170.78125 219.585938 172.230469 218.015625 173.476562 216.445312 C 174.542969 215.28125 175.542969 214.011719 176.355469 212.515625 C 177.460938 210.902344 178.371094 209.0625 179.1875 207.210938 C 179.742188 205.894531 189.046875 191.363281 175.953125 192.363281 L 162.730469 193.378906 L 168.496094 190.183594 C 172.964844 187.078125 180.472656 172.929688 180.003906 170.425781 L 203.027344 159.859375 C 204.511719 157.492188 206.097656 155 207.679688 152.660156 C 207.273438 153.152344 209.160156 150.660156 211.074219 148.0625 C 213.125 145.355469 214.632812 143.5625 216.230469 141.84375 C 219.351562 138.484375 222.675781 135.332031 226.300781 132.332031 C 228.089844 130.824219 230.167969 129.203125 232.3125 127.546875 C 233.679688 126.578125 235.21875 125.570312 236.929688 124.5 L 242.234375 121.527344 C 244.894531 120.027344 246.476562 118.773438 250.789062 119.507812 C 250.78125 120.375 250.804688 119.636719 250.808594 120.457031 C 250.832031 120.722656 250.871094 121.089844 250.851562 121.492188 C 250.847656 123.542969 250.765625 125 250.851562 126.410156 C 250.910156 127.402344 250.960938 128.382812 251.019531 129.375 C 251.332031 131.722656 251.46875 133.972656 251.824219 136.179688 C 251.925781 137.03125 252.027344 137.929688 252.253906 138.867188 C 252.34375 139.253906 252.425781 139.808594 252.5625 140.207031 C 252.703125 140.25 252.667969 140.328125 252.761719 140.355469 C 252.761719 140.355469 252.820312 140.53125 252.960938 140.574219 C 253.027344 140.695312 253.15625 140.742188 253.15625 140.742188 C 253.484375 140.84375 253.804688 140.679688 253.957031 140.519531 C 254.699219 139.257812 255.367188 137.875 255.875 136.539062 C 256.90625 134.496094 257.933594 132.605469 259.015625 130.730469 C 260.066406 128.796875 261.390625 126.992188 262.628906 125.265625 L 261.375 149.285156 C 261.273438 149.613281 261.277344 149.964844 261.179688 150.292969 C 261.007812 150.855469 260.734375 151.390625 260.5625 151.953125 C 259.746094 153.808594 258.730469 155.492188 257.46875 156.953125 C 255.753906 158.894531 253.816406 160.414062 251.726562 161.730469 C 249.648438 162.839844 247.597656 163.792969 245.445312 164.472656 C 243.414062 165.085938 241.339844 165.335938 239.261719 165.421875 C 237.359375 165.613281 235.3125 165.457031 233.410156 165.136719 C 231.886719 164.929688 230.3125 164.554688 228.808594 164.097656 C 225.875 171.40625 222.753906 178.46875 219.5 185.472656 C 214.21875 195.964844 207.113281 205.734375 198.566406 214.3125 C 196.257812 216.6875 193.945312 219.082031 191.523438 221.320312 C 190 222.804688 188.121094 224.433594 186.082031 225.917969 C 184.207031 227.195312 182.40625 228.375 180.699219 229.445312 C 178.757812 230.597656 176.605469 231.632812 174.320312 232.582031 C 170.269531 234.273438 175.109375 235.277344 170.5625 235.234375 C 168.542969 235.132812 161.808594 234.234375 155.121094 234.34375 C 154.390625 234.355469 153.71875 234.074219 152.921875 233.832031 C 152.027344 233.5625 151.039062 233.121094 150.175781 232.753906 C 148.445312 231.871094 146.898438 230.875 145.40625 229.707031 C 144.566406 228.9375 144.714844 227.847656 145.472656 228.230469 Z M 234.847656 132.53125 C 234.207031 134.644531 235.003906 135.382812 237.164062 136.035156 C 239.371094 136.707031 241.1875 136.996094 241.828125 134.882812 C 242.46875 132.773438 240.925781 131.574219 238.722656 130.90625 C 236.5625 130.25 235.488281 130.421875 234.847656 132.53125 Z M 234.847656 132.53125 " fill-opacity="1" fill-rule="nonzero"/></g></g></g><g clip-path="url(#58667d01d4)"><g clip-path="url(#4aadf8314a)"><g clip-path="url(#c8e14b1c48)"><path fill="#00a8a8" d="M 221.339844 220.289062 C 231.695312 211.292969 240.207031 200.386719 246.457031 188.050781 L 250.222656 179.277344 L 253.863281 170.257812 L 257.027344 160.507812 C 254.589844 162.535156 251.949219 164.238281 249.125 165.566406 L 246.128906 166.789062 C 243.429688 167.746094 240.746094 168.347656 237.988281 168.40625 C 236.265625 168.296875 234.699219 168.183594 233.054688 167.996094 L 229.289062 167.355469 L 225.027344 176.6875 L 221.511719 183.941406 L 219.007812 188.789062 C 217.46875 191.53125 215.714844 194.152344 213.847656 196.785156 L 207.371094 205.011719 L 201.6875 211.175781 L 195.539062 217.339844 L 189.40625 222.992188 L 183.910156 227.203125 L 175.125 231.96875 L 166.328125 234.765625 L 169.132812 235.339844 C 178.28125 236.90625 187.742188 236.453125 196.832031 234.167969 C 203.085938 232.640625 208.796875 229.949219 213.746094 226.28125 L 216.417969 224.332031 Z M 221.339844 220.289062 " fill-opacity="1" fill-rule="nonzero"/></g></g></g><g clip-path="url(#dc9ce1e4b1)"><g clip-path="url(#789d4bb699)"><g clip-path="url(#254c66553c)"><path fill="#00a8a8" d="M 153.507812 229.109375 C 151.023438 228.65625 148.574219 228.324219 146.082031 228.171875 L 106.46875 226.5 L 105.792969 226.441406 C 105.6875 226.46875 105.566406 226.433594 105.460938 226.460938 C 105.390625 226.476562 105.269531 226.574219 105.28125 226.671875 C 105.214844 226.820312 105.347656 226.949219 105.484375 227.082031 C 105.617188 227.210938 105.75 227.34375 105.980469 227.351562 L 122.703125 233.363281 L 126.480469 234.773438 C 127.542969 235.292969 128.496094 235.378906 129.410156 235.925781 C 130.335938 236.480469 130.855469 236.851562 131.492188 237.757812 C 132.105469 238.625 132.566406 239.503906 132.914062 240.144531 L 133.484375 241.8125 L 133.613281 242.964844 C 135.15625 242.242188 136.585938 241.578125 138.148438 240.914062 C 140.089844 240.023438 142.417969 239.46875 144.675781 238.453125 C 146.933594 237.433594 147.144531 236.632812 148.945312 235.972656 C 150.742188 235.316406 152.578125 234.632812 154.382812 234.335938 C 155.902344 234.097656 155.785156 233.9375 156.984375 233.863281 C 157.9375 233.847656 163.609375 233.421875 162.328125 232.558594 C 160.789062 231.699219 159.160156 230.929688 157.5625 230.316406 C 156.257812 229.855469 154.9375 229.46875 153.660156 229.167969 C 153.582031 229.089844 153.511719 229.109375 153.511719 229.109375 Z M 153.507812 229.109375 " fill-opacity="1" fill-rule="nonzero"/></g></g></g><g clip-path="url(#e43cbb8710)"><g clip-path="url(#5bffaef980)"><g clip-path="url(#b67b1189be)"><path fill="#00a8a8" d="M 233.796875 206.617188 C 232.265625 208.457031 230.667969 210.175781 228.957031 211.757812 C 228.980469 212.019531 224.828125 214.160156 224.753906 214.394531 C 224.34375 215.753906 224.441406 215.867188 223.808594 217.109375 C 222.28125 220.953125 223.972656 224.132812 222.101562 227.769531 C 226.1875 224.445312 230.433594 221.429688 234.8125 218.8125 C 238.441406 216.480469 242.253906 214.558594 245.96875 212.613281 C 246.210938 211.816406 246.175781 211.085938 246.160156 210.46875 C 245.785156 207.636719 245.25 205.015625 244.574219 202.351562 C 244.007812 199.820312 243.121094 197.503906 241.914062 195.394531 C 241.078125 196.472656 240.269531 197.613281 239.523438 198.71875 C 237.847656 201.539062 235.933594 204.136719 233.796875 206.613281 Z M 233.796875 206.617188 " fill-opacity="1" fill-rule="nonzero"/></g></g></g><g fill="#f4f6fc" fill-opacity="1"><g transform="translate(52.508281, 194.847731)"><g><path d="M 32.328125 -24.71875 C 34.972656 -21.84375 36.296875 -18.3125 36.296875 -14.125 C 36.296875 -9.945312 34.972656 -6.410156 32.328125 -3.515625 C 29.691406 -0.617188 26.34375 0.828125 22.28125 0.828125 C 18.539062 0.828125 15.457031 -0.34375 13.03125 -2.6875 L 13.03125 14.296875 L 3.296875 14.296875 L 3.296875 -28.21875 L 12.921875 -28.21875 L 12.921875 -25.03125 L 13.03125 -25.03125 C 15.457031 -27.707031 18.539062 -29.046875 22.28125 -29.046875 C 26.34375 -29.046875 29.691406 -27.601562 32.328125 -24.71875 Z M 24.0625 -9.34375 C 25.320312 -10.59375 25.953125 -12.1875 25.953125 -14.125 C 25.953125 -16.070312 25.347656 -17.660156 24.140625 -18.890625 C 22.929688 -20.117188 21.335938 -20.734375 19.359375 -20.734375 C 17.453125 -20.734375 15.882812 -20.109375 14.65625 -18.859375 C 13.425781 -17.617188 12.8125 -16.046875 12.8125 -14.140625 C 12.8125 -12.191406 13.441406 -10.59375 14.703125 -9.34375 C 15.972656 -8.101562 17.523438 -7.484375 19.359375 -7.484375 C 21.234375 -7.484375 22.800781 -8.101562 24.0625 -9.34375 Z M 24.0625 -9.34375 "/></g></g></g><g fill="#f4f6fc" fill-opacity="1"><g transform="translate(87.595575, 194.847731)"><g><path d="M 5.96875 -3.34375 C 2.832031 -6.132812 1.265625 -9.710938 1.265625 -14.078125 C 1.265625 -18.441406 2.894531 -22.023438 6.15625 -24.828125 C 9.425781 -27.640625 13.460938 -29.046875 18.265625 -29.046875 C 22.992188 -29.046875 26.976562 -27.628906 30.21875 -24.796875 C 33.46875 -21.972656 35.09375 -18.398438 35.09375 -14.078125 C 35.09375 -9.753906 33.503906 -6.1875 30.328125 -3.375 C 27.160156 -0.570312 23.140625 0.828125 18.265625 0.828125 C 13.203125 0.828125 9.101562 -0.5625 5.96875 -3.34375 Z M 13.5 -18.859375 C 12.238281 -17.617188 11.609375 -16.023438 11.609375 -14.078125 C 11.609375 -12.140625 12.210938 -10.554688 13.421875 -9.328125 C 14.628906 -8.097656 16.222656 -7.484375 18.203125 -7.484375 C 20.109375 -7.484375 21.675781 -8.101562 22.90625 -9.34375 C 24.132812 -10.59375 24.75 -12.171875 24.75 -14.078125 C 24.75 -16.023438 24.113281 -17.617188 22.84375 -18.859375 C 21.582031 -20.109375 20.035156 -20.734375 18.203125 -20.734375 C 16.335938 -20.734375 14.769531 -20.109375 13.5 -18.859375 Z M 13.5 -18.859375 "/></g></g></g><g fill="#f4f6fc" fill-opacity="1"><g transform="translate(121.472955, 194.847731)"><g><path d="M 3.296875 0 L 3.296875 -28.21875 L 13.03125 -28.21875 L 13.03125 -24.140625 L 13.140625 -24.140625 C 13.210938 -24.285156 13.332031 -24.46875 13.5 -24.6875 C 13.664062 -24.914062 14.023438 -25.300781 14.578125 -25.84375 C 15.128906 -26.394531 15.710938 -26.890625 16.328125 -27.328125 C 16.953125 -27.773438 17.757812 -28.171875 18.75 -28.515625 C 19.738281 -28.867188 20.75 -29.046875 21.78125 -29.046875 C 22.84375 -29.046875 23.882812 -28.894531 24.90625 -28.59375 C 25.9375 -28.300781 26.691406 -28.007812 27.171875 -27.71875 L 27.9375 -27.28125 L 23.875 -19.03125 C 22.664062 -20.050781 20.976562 -20.5625 18.8125 -20.5625 C 17.632812 -20.5625 16.625 -20.304688 15.78125 -19.796875 C 14.9375 -19.285156 14.335938 -18.660156 13.984375 -17.921875 C 13.640625 -17.191406 13.394531 -16.570312 13.25 -16.0625 C 13.101562 -15.550781 13.03125 -15.144531 13.03125 -14.84375 L 13.03125 0 Z M 3.296875 0 "/></g></g></g><g fill="#f4f6fc" fill-opacity="1"><g transform="translate(146.38598, 194.847731)"><g><path d="M 4.953125 -28.21875 L 4.953125 -38.71875 L 14.6875 -38.71875 L 14.6875 -28.21875 L 20.625 -28.21875 L 20.625 -20.796875 L 14.6875 -20.796875 L 14.6875 -11.828125 C 14.6875 -9.222656 15.421875 -7.921875 16.890625 -7.921875 C 17.253906 -7.921875 17.632812 -7.992188 18.03125 -8.140625 C 18.4375 -8.285156 18.75 -8.429688 18.96875 -8.578125 L 19.3125 -8.796875 L 21.71875 -0.9375 C 19.632812 0.238281 17.253906 0.828125 14.578125 0.828125 C 12.742188 0.828125 11.164062 0.507812 9.84375 -0.125 C 8.519531 -0.769531 7.519531 -1.632812 6.84375 -2.71875 C 6.164062 -3.800781 5.679688 -4.9375 5.390625 -6.125 C 5.097656 -7.320312 4.953125 -8.597656 4.953125 -9.953125 L 4.953125 -20.796875 L 0.875 -20.796875 L 0.875 -28.21875 Z M 4.953125 -28.21875 "/></g></g></g><g fill="#f4f6fc" fill-opacity="1"><g transform="translate(165.634426, 194.847731)"><g><path d="M 5.21875 -3.484375 C 2.582031 -6.367188 1.265625 -9.898438 1.265625 -14.078125 C 1.265625 -18.253906 2.582031 -21.789062 5.21875 -24.6875 C 7.863281 -27.59375 11.222656 -29.046875 15.296875 -29.046875 C 19.035156 -29.046875 22.113281 -27.867188 24.53125 -25.515625 L 24.53125 -28.21875 L 34.265625 -28.21875 L 34.265625 0 L 24.640625 0 L 24.640625 -3.1875 L 24.53125 -3.1875 C 22.113281 -0.507812 19.035156 0.828125 15.296875 0.828125 C 11.222656 0.828125 7.863281 -0.609375 5.21875 -3.484375 Z M 13.5 -18.859375 C 12.238281 -17.617188 11.609375 -16.023438 11.609375 -14.078125 C 11.609375 -12.140625 12.210938 -10.554688 13.421875 -9.328125 C 14.628906 -8.097656 16.222656 -7.484375 18.203125 -7.484375 C 20.109375 -7.484375 21.675781 -8.101562 22.90625 -9.34375 C 24.132812 -10.59375 24.75 -12.171875 24.75 -14.078125 C 24.75 -16.023438 24.113281 -17.617188 22.84375 -18.859375 C 21.582031 -20.109375 20.035156 -20.734375 18.203125 -20.734375 C 16.335938 -20.734375 14.769531 -20.109375 13.5 -18.859375 Z M 13.5 -18.859375 "/></g></g></g><g fill="#f4f6fc" fill-opacity="1"><g transform="translate(200.721723, 194.847731)"><g><path d="M 17.484375 0 L -1.546875 -45.375 L 10.125 -45.375 L 21.5625 -15.5625 L 33 -45.375 L 44.65625 -45.375 L 25.625 0 Z M 17.484375 0 "/></g></g></g><g fill="#f4f6fc" fill-opacity="1"><g transform="translate(241.363616, 194.847731)"><g><path d="M 5.96875 -3.34375 C 2.832031 -6.132812 1.265625 -9.710938 1.265625 -14.078125 C 1.265625 -18.441406 2.894531 -22.023438 6.15625 -24.828125 C 9.425781 -27.640625 13.460938 -29.046875 18.265625 -29.046875 C 22.992188 -29.046875 26.976562 -27.628906 30.21875 -24.796875 C 33.46875 -21.972656 35.09375 -18.398438 35.09375 -14.078125 C 35.09375 -9.753906 33.503906 -6.1875 30.328125 -3.375 C 27.160156 -0.570312 23.140625 0.828125 18.265625 0.828125 C 13.203125 0.828125 9.101562 -0.5625 5.96875 -3.34375 Z M 13.5 -18.859375 C 12.238281 -17.617188 11.609375 -16.023438 11.609375 -14.078125 C 11.609375 -12.140625 12.210938 -10.554688 13.421875 -9.328125 C 14.628906 -8.097656 16.222656 -7.484375 18.203125 -7.484375 C 20.109375 -7.484375 21.675781 -8.101562 22.90625 -9.34375 C 24.132812 -10.59375 24.75 -12.171875 24.75 -14.078125 C 24.75 -16.023438 24.113281 -17.617188 22.84375 -18.859375 C 21.582031 -20.109375 20.035156 -20.734375 18.203125 -20.734375 C 16.335938 -20.734375 14.769531 -20.109375 13.5 -18.859375 Z M 13.5 -18.859375 "/></g></g></g><g fill="#f4f6fc" fill-opacity="1"><g transform="translate(275.240986, 194.847731)"><g><path d="M 30.578125 -28.21875 L 16.609375 -7.421875 L 29.484375 -7.421875 L 29.484375 0 L 0.28125 0 L 14.25 -20.796875 L 2.578125 -20.796875 L 2.578125 -28.21875 Z M 30.578125 -28.21875 "/></g></g></g><g fill="#00a8a8" fill-opacity="1"><g transform="translate(303.629362, 194.847731)"><g><path d="M 9.5625 -11.765625 C 11.320312 -11.765625 12.816406 -11.148438 14.046875 -9.921875 C 15.273438 -8.691406 15.890625 -7.195312 15.890625 -5.4375 C 15.890625 -3.71875 15.273438 -2.242188 14.046875 -1.015625 C 12.816406 0.210938 11.320312 0.828125 9.5625 0.828125 C 7.84375 0.828125 6.367188 0.210938 5.140625 -1.015625 C 3.910156 -2.242188 3.296875 -3.71875 3.296875 -5.4375 C 3.296875 -7.195312 3.910156 -8.691406 5.140625 -9.921875 C 6.367188 -11.148438 7.84375 -11.765625 9.5625 -11.765625 Z M 9.5625 -11.765625 "/></g></g></g><g fill="#f8fbfd" fill-opacity="1"><g transform="translate(74.495375, 217.647773)"><g><path d="M 0.921875 -6.828125 L 4 -6.828125 C 4.207031 -6.828125 4.378906 -6.753906 4.515625 -6.609375 C 4.660156 -6.472656 4.734375 -6.300781 4.734375 -6.09375 C 4.734375 -5.894531 4.660156 -5.726562 4.515625 -5.59375 C 4.378906 -5.457031 4.207031 -5.390625 4 -5.390625 L 0.921875 -5.390625 C 0.710938 -5.390625 0.535156 -5.457031 0.390625 -5.59375 C 0.253906 -5.738281 0.1875 -5.914062 0.1875 -6.125 C 0.1875 -6.320312 0.253906 -6.488281 0.390625 -6.625 C 0.535156 -6.757812 0.710938 -6.828125 0.921875 -6.828125 Z M 2.3125 -8.453125 C 2.539062 -8.453125 2.722656 -8.375 2.859375 -8.21875 C 3.003906 -8.070312 3.078125 -7.882812 3.078125 -7.65625 L 3.078125 -1.875 C 3.078125 -1.75 3.097656 -1.644531 3.140625 -1.5625 C 3.191406 -1.488281 3.257812 -1.4375 3.34375 -1.40625 C 3.425781 -1.375 3.515625 -1.359375 3.609375 -1.359375 C 3.710938 -1.359375 3.804688 -1.375 3.890625 -1.40625 C 3.984375 -1.445312 4.085938 -1.46875 4.203125 -1.46875 C 4.316406 -1.46875 4.425781 -1.410156 4.53125 -1.296875 C 4.632812 -1.179688 4.6875 -1.023438 4.6875 -0.828125 C 4.6875 -0.585938 4.550781 -0.390625 4.28125 -0.234375 C 4.019531 -0.078125 3.738281 0 3.4375 0 C 3.25 0 3.046875 -0.015625 2.828125 -0.046875 C 2.609375 -0.078125 2.398438 -0.148438 2.203125 -0.265625 C 2.003906 -0.378906 1.835938 -0.554688 1.703125 -0.796875 C 1.578125 -1.046875 1.515625 -1.382812 1.515625 -1.8125 L 1.515625 -7.65625 C 1.515625 -7.882812 1.585938 -8.070312 1.734375 -8.21875 C 1.890625 -8.375 2.082031 -8.453125 2.3125 -8.453125 Z M 2.3125 -8.453125 "/></g></g></g><g fill="#f8fbfd" fill-opacity="1"><g transform="translate(81.578832, 217.647773)"><g><path d="M 7.59375 -3.46875 C 7.59375 -2.757812 7.429688 -2.132812 7.109375 -1.59375 C 6.796875 -1.050781 6.375 -0.628906 5.84375 -0.328125 C 5.3125 -0.0234375 4.71875 0.125 4.0625 0.125 C 3.394531 0.125 2.796875 -0.0234375 2.265625 -0.328125 C 1.734375 -0.628906 1.304688 -1.050781 0.984375 -1.59375 C 0.671875 -2.132812 0.515625 -2.757812 0.515625 -3.46875 C 0.515625 -4.175781 0.671875 -4.800781 0.984375 -5.34375 C 1.304688 -5.882812 1.734375 -6.304688 2.265625 -6.609375 C 2.796875 -6.921875 3.394531 -7.078125 4.0625 -7.078125 C 4.71875 -7.078125 5.3125 -6.921875 5.84375 -6.609375 C 6.375 -6.304688 6.796875 -5.882812 7.109375 -5.34375 C 7.429688 -4.800781 7.59375 -4.175781 7.59375 -3.46875 Z M 6.03125 -3.46875 C 6.03125 -3.914062 5.941406 -4.300781 5.765625 -4.625 C 5.585938 -4.945312 5.347656 -5.195312 5.046875 -5.375 C 4.753906 -5.5625 4.425781 -5.65625 4.0625 -5.65625 C 3.695312 -5.65625 3.363281 -5.5625 3.0625 -5.375 C 2.757812 -5.195312 2.519531 -4.945312 2.34375 -4.625 C 2.164062 -4.300781 2.078125 -3.914062 2.078125 -3.46875 C 2.078125 -3.039062 2.164062 -2.660156 2.34375 -2.328125 C 2.519531 -2.003906 2.757812 -1.75 3.0625 -1.5625 C 3.363281 -1.382812 3.695312 -1.296875 4.0625 -1.296875 C 4.425781 -1.296875 4.753906 -1.382812 5.046875 -1.5625 C 5.347656 -1.75 5.585938 -2.003906 5.765625 -2.328125 C 5.941406 -2.660156 6.03125 -3.039062 6.03125 -3.46875 Z M 6.03125 -3.46875 "/></g></g></g><g fill="#f8fbfd" fill-opacity="1"><g transform="translate(91.456432, 217.647773)"><g><path d="M 1.625 0 C 1.394531 0 1.207031 -0.0703125 1.0625 -0.21875 C 0.914062 -0.375 0.84375 -0.566406 0.84375 -0.796875 L 0.84375 -6.15625 C 0.84375 -6.382812 0.914062 -6.570312 1.0625 -6.71875 C 1.207031 -6.875 1.394531 -6.953125 1.625 -6.953125 C 1.851562 -6.953125 2.039062 -6.875 2.1875 -6.71875 C 2.332031 -6.570312 2.40625 -6.382812 2.40625 -6.15625 L 2.40625 -4.9375 L 2.3125 -5.8125 C 2.40625 -6.019531 2.523438 -6.203125 2.671875 -6.359375 C 2.828125 -6.523438 3 -6.660156 3.1875 -6.765625 C 3.382812 -6.867188 3.59375 -6.945312 3.8125 -7 C 4.03125 -7.050781 4.242188 -7.078125 4.453125 -7.078125 C 4.710938 -7.078125 4.929688 -7.003906 5.109375 -6.859375 C 5.285156 -6.710938 5.375 -6.539062 5.375 -6.34375 C 5.375 -6.0625 5.300781 -5.851562 5.15625 -5.71875 C 5.007812 -5.59375 4.851562 -5.53125 4.6875 -5.53125 C 4.519531 -5.53125 4.367188 -5.5625 4.234375 -5.625 C 4.097656 -5.6875 3.941406 -5.71875 3.765625 -5.71875 C 3.609375 -5.71875 3.453125 -5.679688 3.296875 -5.609375 C 3.140625 -5.535156 2.992188 -5.421875 2.859375 -5.265625 C 2.722656 -5.109375 2.613281 -4.914062 2.53125 -4.6875 C 2.445312 -4.457031 2.40625 -4.1875 2.40625 -3.875 L 2.40625 -0.796875 C 2.40625 -0.566406 2.332031 -0.375 2.1875 -0.21875 C 2.039062 -0.0703125 1.851562 0 1.625 0 Z M 1.625 0 "/></g></g></g><g fill="#f8fbfd" fill-opacity="1"><g transform="translate(98.864786, 217.647773)"><g><path d="M 4.5625 -7.078125 C 5.207031 -7.078125 5.695312 -6.941406 6.03125 -6.671875 C 6.363281 -6.410156 6.59375 -6.054688 6.71875 -5.609375 C 6.84375 -5.160156 6.90625 -4.664062 6.90625 -4.125 L 6.90625 -0.796875 C 6.90625 -0.566406 6.832031 -0.375 6.6875 -0.21875 C 6.539062 -0.0703125 6.351562 0 6.125 0 C 5.894531 0 5.707031 -0.0703125 5.5625 -0.21875 C 5.414062 -0.375 5.34375 -0.566406 5.34375 -0.796875 L 5.34375 -4.125 C 5.34375 -4.40625 5.304688 -4.660156 5.234375 -4.890625 C 5.160156 -5.117188 5.023438 -5.300781 4.828125 -5.4375 C 4.640625 -5.582031 4.367188 -5.65625 4.015625 -5.65625 C 3.671875 -5.65625 3.378906 -5.582031 3.140625 -5.4375 C 2.898438 -5.300781 2.71875 -5.117188 2.59375 -4.890625 C 2.46875 -4.660156 2.40625 -4.40625 2.40625 -4.125 L 2.40625 -0.796875 C 2.40625 -0.566406 2.332031 -0.375 2.1875 -0.21875 C 2.039062 -0.0703125 1.851562 0 1.625 0 C 1.394531 0 1.207031 -0.0703125 1.0625 -0.21875 C 0.914062 -0.375 0.84375 -0.566406 0.84375 -0.796875 L 0.84375 -6.15625 C 0.84375 -6.382812 0.914062 -6.570312 1.0625 -6.71875 C 1.207031 -6.875 1.394531 -6.953125 1.625 -6.953125 C 1.851562 -6.953125 2.039062 -6.875 2.1875 -6.71875 C 2.332031 -6.570312 2.40625 -6.382812 2.40625 -6.15625 L 2.40625 -5.609375 L 2.203125 -5.640625 C 2.285156 -5.785156 2.398438 -5.941406 2.546875 -6.109375 C 2.691406 -6.285156 2.863281 -6.445312 3.0625 -6.59375 C 3.257812 -6.738281 3.484375 -6.851562 3.734375 -6.9375 C 3.992188 -7.03125 4.269531 -7.078125 4.5625 -7.078125 Z M 4.5625 -7.078125 "/></g></g></g><g fill="#f8fbfd" fill-opacity="1"><g transform="translate(108.378499, 217.647773)"><g><path d="M 6.53125 -7.078125 C 6.757812 -7.078125 6.945312 -7.003906 7.09375 -6.859375 C 7.238281 -6.710938 7.3125 -6.523438 7.3125 -6.296875 L 7.3125 -0.796875 C 7.3125 -0.566406 7.238281 -0.375 7.09375 -0.21875 C 6.945312 -0.0703125 6.757812 0 6.53125 0 C 6.3125 0 6.128906 -0.0703125 5.984375 -0.21875 C 5.835938 -0.375 5.765625 -0.566406 5.765625 -0.796875 L 5.765625 -1.4375 L 6.046875 -1.3125 C 6.046875 -1.195312 5.984375 -1.054688 5.859375 -0.890625 C 5.742188 -0.734375 5.582031 -0.578125 5.375 -0.421875 C 5.164062 -0.265625 4.921875 -0.132812 4.640625 -0.03125 C 4.359375 0.0703125 4.050781 0.125 3.71875 0.125 C 3.125 0.125 2.582031 -0.0234375 2.09375 -0.328125 C 1.601562 -0.640625 1.21875 -1.066406 0.9375 -1.609375 C 0.65625 -2.148438 0.515625 -2.769531 0.515625 -3.46875 C 0.515625 -4.175781 0.65625 -4.800781 0.9375 -5.34375 C 1.21875 -5.882812 1.597656 -6.304688 2.078125 -6.609375 C 2.554688 -6.921875 3.085938 -7.078125 3.671875 -7.078125 C 4.035156 -7.078125 4.375 -7.019531 4.6875 -6.90625 C 5 -6.800781 5.269531 -6.660156 5.5 -6.484375 C 5.726562 -6.316406 5.90625 -6.140625 6.03125 -5.953125 C 6.164062 -5.773438 6.234375 -5.628906 6.234375 -5.515625 L 5.765625 -5.34375 L 5.765625 -6.296875 C 5.765625 -6.515625 5.835938 -6.695312 5.984375 -6.84375 C 6.128906 -7 6.3125 -7.078125 6.53125 -7.078125 Z M 3.90625 -1.296875 C 4.289062 -1.296875 4.625 -1.390625 4.90625 -1.578125 C 5.195312 -1.773438 5.421875 -2.035156 5.578125 -2.359375 C 5.742188 -2.691406 5.828125 -3.0625 5.828125 -3.46875 C 5.828125 -3.882812 5.742188 -4.253906 5.578125 -4.578125 C 5.421875 -4.910156 5.195312 -5.171875 4.90625 -5.359375 C 4.625 -5.554688 4.289062 -5.65625 3.90625 -5.65625 C 3.539062 -5.65625 3.210938 -5.554688 2.921875 -5.359375 C 2.640625 -5.171875 2.414062 -4.910156 2.25 -4.578125 C 2.09375 -4.253906 2.015625 -3.882812 2.015625 -3.46875 C 2.015625 -3.0625 2.09375 -2.691406 2.25 -2.359375 C 2.414062 -2.035156 2.640625 -1.773438 2.921875 -1.578125 C 3.210938 -1.390625 3.539062 -1.296875 3.90625 -1.296875 Z M 3.90625 -1.296875 "/></g></g></g><g fill="#f8fbfd" fill-opacity="1"><g transform="translate(118.308091, 217.647773)"><g><path d="M 4.5625 -7.078125 C 5.207031 -7.078125 5.695312 -6.941406 6.03125 -6.671875 C 6.363281 -6.410156 6.59375 -6.054688 6.71875 -5.609375 C 6.84375 -5.160156 6.90625 -4.664062 6.90625 -4.125 L 6.90625 -0.796875 C 6.90625 -0.566406 6.832031 -0.375 6.6875 -0.21875 C 6.539062 -0.0703125 6.351562 0 6.125 0 C 5.894531 0 5.707031 -0.0703125 5.5625 -0.21875 C 5.414062 -0.375 5.34375 -0.566406 5.34375 -0.796875 L 5.34375 -4.125 C 5.34375 -4.40625 5.304688 -4.660156 5.234375 -4.890625 C 5.160156 -5.117188 5.023438 -5.300781 4.828125 -5.4375 C 4.640625 -5.582031 4.367188 -5.65625 4.015625 -5.65625 C 3.671875 -5.65625 3.378906 -5.582031 3.140625 -5.4375 C 2.898438 -5.300781 2.71875 -5.117188 2.59375 -4.890625 C 2.46875 -4.660156 2.40625 -4.40625 2.40625 -4.125 L 2.40625 -0.796875 C 2.40625 -0.566406 2.332031 -0.375 2.1875 -0.21875 C 2.039062 -0.0703125 1.851562 0 1.625 0 C 1.394531 0 1.207031 -0.0703125 1.0625 -0.21875 C 0.914062 -0.375 0.84375 -0.566406 0.84375 -0.796875 L 0.84375 -6.15625 C 0.84375 -6.382812 0.914062 -6.570312 1.0625 -6.71875 C 1.207031 -6.875 1.394531 -6.953125 1.625 -6.953125 C 1.851562 -6.953125 2.039062 -6.875 2.1875 -6.71875 C 2.332031 -6.570312 2.40625 -6.382812 2.40625 -6.15625 L 2.40625 -5.609375 L 2.203125 -5.640625 C 2.285156 -5.785156 2.398438 -5.941406 2.546875 -6.109375 C 2.691406 -6.285156 2.863281 -6.445312 3.0625 -6.59375 C 3.257812 -6.738281 3.484375 -6.851562 3.734375 -6.9375 C 3.992188 -7.03125 4.269531 -7.078125 4.5625 -7.078125 Z M 4.5625 -7.078125 "/></g></g></g><g fill="#f8fbfd" fill-opacity="1"><g transform="translate(127.821801, 217.647773)"><g><path d="M 6.53125 -9.625 C 6.757812 -9.625 6.945312 -9.546875 7.09375 -9.390625 C 7.238281 -9.242188 7.3125 -9.054688 7.3125 -8.828125 L 7.3125 -0.796875 C 7.3125 -0.566406 7.238281 -0.375 7.09375 -0.21875 C 6.945312 -0.0703125 6.757812 0 6.53125 0 C 6.3125 0 6.128906 -0.0703125 5.984375 -0.21875 C 5.835938 -0.375 5.765625 -0.566406 5.765625 -0.796875 L 5.765625 -1.4375 L 6.046875 -1.3125 C 6.046875 -1.195312 5.984375 -1.054688 5.859375 -0.890625 C 5.742188 -0.734375 5.582031 -0.578125 5.375 -0.421875 C 5.164062 -0.265625 4.921875 -0.132812 4.640625 -0.03125 C 4.359375 0.0703125 4.050781 0.125 3.71875 0.125 C 3.125 0.125 2.582031 -0.0234375 2.09375 -0.328125 C 1.601562 -0.640625 1.21875 -1.066406 0.9375 -1.609375 C 0.65625 -2.148438 0.515625 -2.769531 0.515625 -3.46875 C 0.515625 -4.175781 0.65625 -4.800781 0.9375 -5.34375 C 1.21875 -5.882812 1.597656 -6.304688 2.078125 -6.609375 C 2.554688 -6.921875 3.085938 -7.078125 3.671875 -7.078125 C 4.035156 -7.078125 4.375 -7.019531 4.6875 -6.90625 C 5 -6.800781 5.269531 -6.660156 5.5 -6.484375 C 5.726562 -6.316406 5.90625 -6.140625 6.03125 -5.953125 C 6.164062 -5.773438 6.234375 -5.628906 6.234375 -5.515625 L 5.765625 -5.34375 L 5.765625 -8.828125 C 5.765625 -9.054688 5.835938 -9.242188 5.984375 -9.390625 C 6.128906 -9.546875 6.3125 -9.625 6.53125 -9.625 Z M 3.90625 -1.296875 C 4.289062 -1.296875 4.625 -1.390625 4.90625 -1.578125 C 5.195312 -1.773438 5.421875 -2.035156 5.578125 -2.359375 C 5.742188 -2.691406 5.828125 -3.0625 5.828125 -3.46875 C 5.828125 -3.882812 5.742188 -4.253906 5.578125 -4.578125 C 5.421875 -4.910156 5.195312 -5.171875 4.90625 -5.359375 C 4.625 -5.554688 4.289062 -5.65625 3.90625 -5.65625 C 3.539062 -5.65625 3.210938 -5.554688 2.921875 -5.359375 C 2.640625 -5.171875 2.414062 -4.910156 2.25 -4.578125 C 2.09375 -4.253906 2.015625 -3.882812 2.015625 -3.46875 C 2.015625 -3.0625 2.09375 -2.691406 2.25 -2.359375 C 2.414062 -2.035156 2.640625 -1.773438 2.921875 -1.578125 C 3.210938 -1.390625 3.539062 -1.296875 3.90625 -1.296875 Z M 3.90625 -1.296875 "/></g></g></g><g fill="#f8fbfd" fill-opacity="1"><g transform="translate(137.751393, 217.647773)"><g><path d="M 7.59375 -3.46875 C 7.59375 -2.757812 7.429688 -2.132812 7.109375 -1.59375 C 6.796875 -1.050781 6.375 -0.628906 5.84375 -0.328125 C 5.3125 -0.0234375 4.71875 0.125 4.0625 0.125 C 3.394531 0.125 2.796875 -0.0234375 2.265625 -0.328125 C 1.734375 -0.628906 1.304688 -1.050781 0.984375 -1.59375 C 0.671875 -2.132812 0.515625 -2.757812 0.515625 -3.46875 C 0.515625 -4.175781 0.671875 -4.800781 0.984375 -5.34375 C 1.304688 -5.882812 1.734375 -6.304688 2.265625 -6.609375 C 2.796875 -6.921875 3.394531 -7.078125 4.0625 -7.078125 C 4.71875 -7.078125 5.3125 -6.921875 5.84375 -6.609375 C 6.375 -6.304688 6.796875 -5.882812 7.109375 -5.34375 C 7.429688 -4.800781 7.59375 -4.175781 7.59375 -3.46875 Z M 6.03125 -3.46875 C 6.03125 -3.914062 5.941406 -4.300781 5.765625 -4.625 C 5.585938 -4.945312 5.347656 -5.195312 5.046875 -5.375 C 4.753906 -5.5625 4.425781 -5.65625 4.0625 -5.65625 C 3.695312 -5.65625 3.363281 -5.5625 3.0625 -5.375 C 2.757812 -5.195312 2.519531 -4.945312 2.34375 -4.625 C 2.164062 -4.300781 2.078125 -3.914062 2.078125 -3.46875 C 2.078125 -3.039062 2.164062 -2.660156 2.34375 -2.328125 C 2.519531 -2.003906 2.757812 -1.75 3.0625 -1.5625 C 3.363281 -1.382812 3.695312 -1.296875 4.0625 -1.296875 C 4.425781 -1.296875 4.753906 -1.382812 5.046875 -1.5625 C 5.347656 -1.75 5.585938 -2.003906 5.765625 -2.328125 C 5.941406 -2.660156 6.03125 -3.039062 6.03125 -3.46875 Z M 6.03125 -3.46875 "/></g></g></g><g fill="#f8fbfd" fill-opacity="1"><g transform="translate(147.628993, 217.647773)"><g/></g></g><g fill="#f8fbfd" fill-opacity="1"><g transform="translate(153.035972, 217.647773)"><g><path d="M 4.734375 -9.09375 C 5.179688 -9.09375 5.601562 -8.960938 6 -8.703125 C 6.394531 -8.441406 6.710938 -8.09375 6.953125 -7.65625 C 7.191406 -7.21875 7.3125 -6.722656 7.3125 -6.171875 C 7.3125 -5.640625 7.191406 -5.148438 6.953125 -4.703125 C 6.710938 -4.265625 6.394531 -3.910156 6 -3.640625 C 5.601562 -3.378906 5.179688 -3.25 4.734375 -3.25 L 2.34375 -3.25 L 2.46875 -3.484375 L 2.46875 -0.796875 C 2.46875 -0.566406 2.394531 -0.375 2.25 -0.21875 C 2.113281 -0.0703125 1.9375 0 1.71875 0 C 1.5 0 1.316406 -0.0703125 1.171875 -0.21875 C 1.035156 -0.375 0.96875 -0.566406 0.96875 -0.796875 L 0.96875 -8.3125 C 0.96875 -8.53125 1.046875 -8.710938 1.203125 -8.859375 C 1.359375 -9.015625 1.546875 -9.09375 1.765625 -9.09375 Z M 4.734375 -4.734375 C 4.898438 -4.734375 5.0625 -4.800781 5.21875 -4.9375 C 5.375 -5.070312 5.503906 -5.25 5.609375 -5.46875 C 5.710938 -5.695312 5.765625 -5.929688 5.765625 -6.171875 C 5.765625 -6.421875 5.710938 -6.65625 5.609375 -6.875 C 5.503906 -7.09375 5.375 -7.269531 5.21875 -7.40625 C 5.0625 -7.539062 4.898438 -7.609375 4.734375 -7.609375 L 2.3125 -7.609375 L 2.46875 -7.84375 L 2.46875 -4.53125 L 2.328125 -4.734375 Z M 4.734375 -4.734375 "/></g></g></g><g fill="#f8fbfd" fill-opacity="1"><g transform="translate(162.640654, 217.647773)"><g><path d="M 2.3125 -0.796875 C 2.3125 -0.566406 2.238281 -0.375 2.09375 -0.21875 C 1.945312 -0.0703125 1.757812 0 1.53125 0 C 1.3125 0 1.125 -0.0703125 0.96875 -0.21875 C 0.820312 -0.375 0.75 -0.566406 0.75 -0.796875 L 0.75 -6.15625 C 0.75 -6.382812 0.820312 -6.570312 0.96875 -6.71875 C 1.125 -6.875 1.3125 -6.953125 1.53125 -6.953125 C 1.757812 -6.953125 1.945312 -6.875 2.09375 -6.71875 C 2.238281 -6.570312 2.3125 -6.382812 2.3125 -6.15625 Z M 1.515625 -7.796875 C 1.222656 -7.796875 1.015625 -7.84375 0.890625 -7.9375 C 0.773438 -8.039062 0.71875 -8.210938 0.71875 -8.453125 L 0.71875 -8.703125 C 0.71875 -8.953125 0.78125 -9.117188 0.90625 -9.203125 C 1.039062 -9.296875 1.25 -9.34375 1.53125 -9.34375 C 1.832031 -9.34375 2.039062 -9.296875 2.15625 -9.203125 C 2.28125 -9.109375 2.34375 -8.941406 2.34375 -8.703125 L 2.34375 -8.453125 C 2.34375 -8.203125 2.273438 -8.03125 2.140625 -7.9375 C 2.015625 -7.84375 1.804688 -7.796875 1.515625 -7.796875 Z M 1.515625 -7.796875 "/></g></g></g><g fill="#f8fbfd" fill-opacity="1"><g transform="translate(167.475805, 217.647773)"><g><path d="M 1.625 0 C 1.394531 0 1.207031 -0.0703125 1.0625 -0.21875 C 0.914062 -0.375 0.84375 -0.566406 0.84375 -0.796875 L 0.84375 -6.15625 C 0.84375 -6.382812 0.914062 -6.570312 1.0625 -6.71875 C 1.207031 -6.875 1.394531 -6.953125 1.625 -6.953125 C 1.851562 -6.953125 2.039062 -6.875 2.1875 -6.71875 C 2.332031 -6.570312 2.40625 -6.382812 2.40625 -6.15625 L 2.40625 -4.9375 L 2.3125 -5.8125 C 2.40625 -6.019531 2.523438 -6.203125 2.671875 -6.359375 C 2.828125 -6.523438 3 -6.660156 3.1875 -6.765625 C 3.382812 -6.867188 3.59375 -6.945312 3.8125 -7 C 4.03125 -7.050781 4.242188 -7.078125 4.453125 -7.078125 C 4.710938 -7.078125 4.929688 -7.003906 5.109375 -6.859375 C 5.285156 -6.710938 5.375 -6.539062 5.375 -6.34375 C 5.375 -6.0625 5.300781 -5.851562 5.15625 -5.71875 C 5.007812 -5.59375 4.851562 -5.53125 4.6875 -5.53125 C 4.519531 -5.53125 4.367188 -5.5625 4.234375 -5.625 C 4.097656 -5.6875 3.941406 -5.71875 3.765625 -5.71875 C 3.609375 -5.71875 3.453125 -5.679688 3.296875 -5.609375 C 3.140625 -5.535156 2.992188 -5.421875 2.859375 -5.265625 C 2.722656 -5.109375 2.613281 -4.914062 2.53125 -4.6875 C 2.445312 -4.457031 2.40625 -4.1875 2.40625 -3.875 L 2.40625 -0.796875 C 2.40625 -0.566406 2.332031 -0.375 2.1875 -0.21875 C 2.039062 -0.0703125 1.851562 0 1.625 0 Z M 1.625 0 "/></g></g></g><g fill="#f8fbfd" fill-opacity="1"><g transform="translate(174.884155, 217.647773)"><g><path d="M 6.53125 -7.078125 C 6.757812 -7.078125 6.945312 -7.003906 7.09375 -6.859375 C 7.238281 -6.710938 7.3125 -6.523438 7.3125 -6.296875 L 7.3125 -0.796875 C 7.3125 -0.566406 7.238281 -0.375 7.09375 -0.21875 C 6.945312 -0.0703125 6.757812 0 6.53125 0 C 6.3125 0 6.128906 -0.0703125 5.984375 -0.21875 C 5.835938 -0.375 5.765625 -0.566406 5.765625 -0.796875 L 5.765625 -1.4375 L 6.046875 -1.3125 C 6.046875 -1.195312 5.984375 -1.054688 5.859375 -0.890625 C 5.742188 -0.734375 5.582031 -0.578125 5.375 -0.421875 C 5.164062 -0.265625 4.921875 -0.132812 4.640625 -0.03125 C 4.359375 0.0703125 4.050781 0.125 3.71875 0.125 C 3.125 0.125 2.582031 -0.0234375 2.09375 -0.328125 C 1.601562 -0.640625 1.21875 -1.066406 0.9375 -1.609375 C 0.65625 -2.148438 0.515625 -2.769531 0.515625 -3.46875 C 0.515625 -4.175781 0.65625 -4.800781 0.9375 -5.34375 C 1.21875 -5.882812 1.597656 -6.304688 2.078125 -6.609375 C 2.554688 -6.921875 3.085938 -7.078125 3.671875 -7.078125 C 4.035156 -7.078125 4.375 -7.019531 4.6875 -6.90625 C 5 -6.800781 5.269531 -6.660156 5.5 -6.484375 C 5.726562 -6.316406 5.90625 -6.140625 6.03125 -5.953125 C 6.164062 -5.773438 6.234375 -5.628906 6.234375 -5.515625 L 5.765625 -5.34375 L 5.765625 -6.296875 C 5.765625 -6.515625 5.835938 -6.695312 5.984375 -6.84375 C 6.128906 -7 6.3125 -7.078125 6.53125 -7.078125 Z M 3.90625 -1.296875 C 4.289062 -1.296875 4.625 -1.390625 4.90625 -1.578125 C 5.195312 -1.773438 5.421875 -2.035156 5.578125 -2.359375 C 5.742188 -2.691406 5.828125 -3.0625 5.828125 -3.46875 C 5.828125 -3.882812 5.742188 -4.253906 5.578125 -4.578125 C 5.421875 -4.910156 5.195312 -5.171875 4.90625 -5.359375 C 4.625 -5.554688 4.289062 -5.65625 3.90625 -5.65625 C 3.539062 -5.65625 3.210938 -5.554688 2.921875 -5.359375 C 2.640625 -5.171875 2.414062 -4.910156 2.25 -4.578125 C 2.09375 -4.253906 2.015625 -3.882812 2.015625 -3.46875 C 2.015625 -3.0625 2.09375 -2.691406 2.25 -2.359375 C 2.414062 -2.035156 2.640625 -1.773438 2.921875 -1.578125 C 3.210938 -1.390625 3.539062 -1.296875 3.90625 -1.296875 Z M 3.90625 -1.296875 "/></g></g></g><g fill="#f8fbfd" fill-opacity="1"><g transform="translate(184.813746, 217.647773)"><g><path d="M 3.9375 -7.078125 C 4.4375 -7.078125 4.867188 -7.023438 5.234375 -6.921875 C 5.597656 -6.816406 5.878906 -6.671875 6.078125 -6.484375 C 6.285156 -6.304688 6.390625 -6.085938 6.390625 -5.828125 C 6.390625 -5.648438 6.335938 -5.484375 6.234375 -5.328125 C 6.128906 -5.179688 5.976562 -5.109375 5.78125 -5.109375 C 5.644531 -5.109375 5.53125 -5.125 5.4375 -5.15625 C 5.34375 -5.195312 5.257812 -5.25 5.1875 -5.3125 C 5.125 -5.375 5.046875 -5.429688 4.953125 -5.484375 C 4.867188 -5.535156 4.738281 -5.578125 4.5625 -5.609375 C 4.382812 -5.640625 4.25 -5.65625 4.15625 -5.65625 C 3.71875 -5.65625 3.34375 -5.554688 3.03125 -5.359375 C 2.726562 -5.171875 2.492188 -4.914062 2.328125 -4.59375 C 2.160156 -4.269531 2.078125 -3.894531 2.078125 -3.46875 C 2.078125 -3.050781 2.160156 -2.679688 2.328125 -2.359375 C 2.503906 -2.035156 2.738281 -1.773438 3.03125 -1.578125 C 3.332031 -1.390625 3.675781 -1.296875 4.0625 -1.296875 C 4.28125 -1.296875 4.46875 -1.304688 4.625 -1.328125 C 4.78125 -1.359375 4.910156 -1.398438 5.015625 -1.453125 C 5.140625 -1.523438 5.25 -1.597656 5.34375 -1.671875 C 5.4375 -1.753906 5.578125 -1.796875 5.765625 -1.796875 C 5.992188 -1.796875 6.164062 -1.722656 6.28125 -1.578125 C 6.40625 -1.429688 6.46875 -1.253906 6.46875 -1.046875 C 6.46875 -0.835938 6.347656 -0.640625 6.109375 -0.453125 C 5.867188 -0.273438 5.550781 -0.132812 5.15625 -0.03125 C 4.757812 0.0703125 4.332031 0.125 3.875 0.125 C 3.1875 0.125 2.59375 -0.03125 2.09375 -0.34375 C 1.59375 -0.65625 1.203125 -1.082031 0.921875 -1.625 C 0.648438 -2.175781 0.515625 -2.789062 0.515625 -3.46875 C 0.515625 -4.175781 0.660156 -4.800781 0.953125 -5.34375 C 1.242188 -5.882812 1.644531 -6.304688 2.15625 -6.609375 C 2.675781 -6.921875 3.269531 -7.078125 3.9375 -7.078125 Z M 3.9375 -7.078125 "/></g></g></g><g fill="#f8fbfd" fill-opacity="1"><g transform="translate(193.339766, 217.647773)"><g><path d="M 2.3125 -0.796875 C 2.3125 -0.566406 2.238281 -0.375 2.09375 -0.21875 C 1.945312 -0.0703125 1.757812 0 1.53125 0 C 1.3125 0 1.125 -0.0703125 0.96875 -0.21875 C 0.820312 -0.375 0.75 -0.566406 0.75 -0.796875 L 0.75 -6.15625 C 0.75 -6.382812 0.820312 -6.570312 0.96875 -6.71875 C 1.125 -6.875 1.3125 -6.953125 1.53125 -6.953125 C 1.757812 -6.953125 1.945312 -6.875 2.09375 -6.71875 C 2.238281 -6.570312 2.3125 -6.382812 2.3125 -6.15625 Z M 1.515625 -7.796875 C 1.222656 -7.796875 1.015625 -7.84375 0.890625 -7.9375 C 0.773438 -8.039062 0.71875 -8.210938 0.71875 -8.453125 L 0.71875 -8.703125 C 0.71875 -8.953125 0.78125 -9.117188 0.90625 -9.203125 C 1.039062 -9.296875 1.25 -9.34375 1.53125 -9.34375 C 1.832031 -9.34375 2.039062 -9.296875 2.15625 -9.203125 C 2.28125 -9.109375 2.34375 -8.941406 2.34375 -8.703125 L 2.34375 -8.453125 C 2.34375 -8.203125 2.273438 -8.03125 2.140625 -7.9375 C 2.015625 -7.84375 1.804688 -7.796875 1.515625 -7.796875 Z M 1.515625 -7.796875 "/></g></g></g><g fill="#f8fbfd" fill-opacity="1"><g transform="translate(198.174917, 217.647773)"><g><path d="M 3.9375 -7.078125 C 4.4375 -7.078125 4.867188 -7.023438 5.234375 -6.921875 C 5.597656 -6.816406 5.878906 -6.671875 6.078125 -6.484375 C 6.285156 -6.304688 6.390625 -6.085938 6.390625 -5.828125 C 6.390625 -5.648438 6.335938 -5.484375 6.234375 -5.328125 C 6.128906 -5.179688 5.976562 -5.109375 5.78125 -5.109375 C 5.644531 -5.109375 5.53125 -5.125 5.4375 -5.15625 C 5.34375 -5.195312 5.257812 -5.25 5.1875 -5.3125 C 5.125 -5.375 5.046875 -5.429688 4.953125 -5.484375 C 4.867188 -5.535156 4.738281 -5.578125 4.5625 -5.609375 C 4.382812 -5.640625 4.25 -5.65625 4.15625 -5.65625 C 3.71875 -5.65625 3.34375 -5.554688 3.03125 -5.359375 C 2.726562 -5.171875 2.492188 -4.914062 2.328125 -4.59375 C 2.160156 -4.269531 2.078125 -3.894531 2.078125 -3.46875 C 2.078125 -3.050781 2.160156 -2.679688 2.328125 -2.359375 C 2.503906 -2.035156 2.738281 -1.773438 3.03125 -1.578125 C 3.332031 -1.390625 3.675781 -1.296875 4.0625 -1.296875 C 4.28125 -1.296875 4.46875 -1.304688 4.625 -1.328125 C 4.78125 -1.359375 4.910156 -1.398438 5.015625 -1.453125 C 5.140625 -1.523438 5.25 -1.597656 5.34375 -1.671875 C 5.4375 -1.753906 5.578125 -1.796875 5.765625 -1.796875 C 5.992188 -1.796875 6.164062 -1.722656 6.28125 -1.578125 C 6.40625 -1.429688 6.46875 -1.253906 6.46875 -1.046875 C 6.46875 -0.835938 6.347656 -0.640625 6.109375 -0.453125 C 5.867188 -0.273438 5.550781 -0.132812 5.15625 -0.03125 C 4.757812 0.0703125 4.332031 0.125 3.875 0.125 C 3.1875 0.125 2.59375 -0.03125 2.09375 -0.34375 C 1.59375 -0.65625 1.203125 -1.082031 0.921875 -1.625 C 0.648438 -2.175781 0.515625 -2.789062 0.515625 -3.46875 C 0.515625 -4.175781 0.660156 -4.800781 0.953125 -5.34375 C 1.242188 -5.882812 1.644531 -6.304688 2.15625 -6.609375 C 2.675781 -6.921875 3.269531 -7.078125 3.9375 -7.078125 Z M 3.9375 -7.078125 "/></g></g></g><g fill="#f8fbfd" fill-opacity="1"><g transform="translate(206.700937, 217.647773)"><g><path d="M 6.53125 -7.078125 C 6.757812 -7.078125 6.945312 -7.003906 7.09375 -6.859375 C 7.238281 -6.710938 7.3125 -6.523438 7.3125 -6.296875 L 7.3125 -0.796875 C 7.3125 -0.566406 7.238281 -0.375 7.09375 -0.21875 C 6.945312 -0.0703125 6.757812 0 6.53125 0 C 6.3125 0 6.128906 -0.0703125 5.984375 -0.21875 C 5.835938 -0.375 5.765625 -0.566406 5.765625 -0.796875 L 5.765625 -1.4375 L 6.046875 -1.3125 C 6.046875 -1.195312 5.984375 -1.054688 5.859375 -0.890625 C 5.742188 -0.734375 5.582031 -0.578125 5.375 -0.421875 C 5.164062 -0.265625 4.921875 -0.132812 4.640625 -0.03125 C 4.359375 0.0703125 4.050781 0.125 3.71875 0.125 C 3.125 0.125 2.582031 -0.0234375 2.09375 -0.328125 C 1.601562 -0.640625 1.21875 -1.066406 0.9375 -1.609375 C 0.65625 -2.148438 0.515625 -2.769531 0.515625 -3.46875 C 0.515625 -4.175781 0.65625 -4.800781 0.9375 -5.34375 C 1.21875 -5.882812 1.597656 -6.304688 2.078125 -6.609375 C 2.554688 -6.921875 3.085938 -7.078125 3.671875 -7.078125 C 4.035156 -7.078125 4.375 -7.019531 4.6875 -6.90625 C 5 -6.800781 5.269531 -6.660156 5.5 -6.484375 C 5.726562 -6.316406 5.90625 -6.140625 6.03125 -5.953125 C 6.164062 -5.773438 6.234375 -5.628906 6.234375 -5.515625 L 5.765625 -5.34375 L 5.765625 -6.296875 C 5.765625 -6.515625 5.835938 -6.695312 5.984375 -6.84375 C 6.128906 -7 6.3125 -7.078125 6.53125 -7.078125 Z M 3.90625 -1.296875 C 4.289062 -1.296875 4.625 -1.390625 4.90625 -1.578125 C 5.195312 -1.773438 5.421875 -2.035156 5.578125 -2.359375 C 5.742188 -2.691406 5.828125 -3.0625 5.828125 -3.46875 C 5.828125 -3.882812 5.742188 -4.253906 5.578125 -4.578125 C 5.421875 -4.910156 5.195312 -5.171875 4.90625 -5.359375 C 4.625 -5.554688 4.289062 -5.65625 3.90625 -5.65625 C 3.539062 -5.65625 3.210938 -5.554688 2.921875 -5.359375 C 2.640625 -5.171875 2.414062 -4.910156 2.25 -4.578125 C 2.09375 -4.253906 2.015625 -3.882812 2.015625 -3.46875 C 2.015625 -3.0625 2.09375 -2.691406 2.25 -2.359375 C 2.414062 -2.035156 2.640625 -1.773438 2.921875 -1.578125 C 3.210938 -1.390625 3.539062 -1.296875 3.90625 -1.296875 Z M 3.90625 -1.296875 "/></g></g></g><g fill="#f8fbfd" fill-opacity="1"><g transform="translate(216.630528, 217.647773)"><g><path d="M 4.453125 -7.078125 C 5.054688 -7.078125 5.597656 -6.921875 6.078125 -6.609375 C 6.554688 -6.304688 6.9375 -5.882812 7.21875 -5.34375 C 7.5 -4.8125 7.640625 -4.191406 7.640625 -3.484375 C 7.640625 -2.773438 7.5 -2.148438 7.21875 -1.609375 C 6.9375 -1.066406 6.554688 -0.640625 6.078125 -0.328125 C 5.609375 -0.0234375 5.082031 0.125 4.5 0.125 C 4.15625 0.125 3.828125 0.0703125 3.515625 -0.03125 C 3.210938 -0.144531 2.945312 -0.289062 2.71875 -0.46875 C 2.488281 -0.644531 2.3125 -0.820312 2.1875 -1 C 2.0625 -1.175781 2 -1.320312 2 -1.4375 L 2.40625 -1.609375 L 2.40625 -0.65625 C 2.40625 -0.4375 2.332031 -0.25 2.1875 -0.09375 C 2.039062 0.0507812 1.851562 0.125 1.625 0.125 C 1.394531 0.125 1.207031 0.0507812 1.0625 -0.09375 C 0.914062 -0.238281 0.84375 -0.425781 0.84375 -0.65625 L 0.84375 -8.828125 C 0.84375 -9.054688 0.914062 -9.242188 1.0625 -9.390625 C 1.207031 -9.546875 1.394531 -9.625 1.625 -9.625 C 1.851562 -9.625 2.039062 -9.546875 2.1875 -9.390625 C 2.332031 -9.242188 2.40625 -9.054688 2.40625 -8.828125 L 2.40625 -5.53125 L 2.1875 -5.640625 C 2.1875 -5.753906 2.242188 -5.890625 2.359375 -6.046875 C 2.484375 -6.210938 2.648438 -6.375 2.859375 -6.53125 C 3.066406 -6.6875 3.304688 -6.816406 3.578125 -6.921875 C 3.847656 -7.023438 4.140625 -7.078125 4.453125 -7.078125 Z M 4.25 -5.65625 C 3.863281 -5.65625 3.53125 -5.554688 3.25 -5.359375 C 2.96875 -5.171875 2.742188 -4.914062 2.578125 -4.59375 C 2.421875 -4.269531 2.34375 -3.898438 2.34375 -3.484375 C 2.34375 -3.078125 2.421875 -2.707031 2.578125 -2.375 C 2.742188 -2.039062 2.96875 -1.773438 3.25 -1.578125 C 3.53125 -1.390625 3.863281 -1.296875 4.25 -1.296875 C 4.632812 -1.296875 4.96875 -1.390625 5.25 -1.578125 C 5.53125 -1.773438 5.75 -2.039062 5.90625 -2.375 C 6.070312 -2.707031 6.15625 -3.078125 6.15625 -3.484375 C 6.15625 -3.898438 6.070312 -4.269531 5.90625 -4.59375 C 5.75 -4.914062 5.53125 -5.171875 5.25 -5.359375 C 4.96875 -5.554688 4.632812 -5.65625 4.25 -5.65625 Z M 4.25 -5.65625 "/></g></g></g><g fill="#f8fbfd" fill-opacity="1"><g transform="translate(226.56012, 217.647773)"><g><path d="M 6.53125 -7.078125 C 6.757812 -7.078125 6.945312 -7.003906 7.09375 -6.859375 C 7.238281 -6.710938 7.3125 -6.523438 7.3125 -6.296875 L 7.3125 -0.796875 C 7.3125 -0.566406 7.238281 -0.375 7.09375 -0.21875 C 6.945312 -0.0703125 6.757812 0 6.53125 0 C 6.3125 0 6.128906 -0.0703125 5.984375 -0.21875 C 5.835938 -0.375 5.765625 -0.566406 5.765625 -0.796875 L 5.765625 -1.4375 L 6.046875 -1.3125 C 6.046875 -1.195312 5.984375 -1.054688 5.859375 -0.890625 C 5.742188 -0.734375 5.582031 -0.578125 5.375 -0.421875 C 5.164062 -0.265625 4.921875 -0.132812 4.640625 -0.03125 C 4.359375 0.0703125 4.050781 0.125 3.71875 0.125 C 3.125 0.125 2.582031 -0.0234375 2.09375 -0.328125 C 1.601562 -0.640625 1.21875 -1.066406 0.9375 -1.609375 C 0.65625 -2.148438 0.515625 -2.769531 0.515625 -3.46875 C 0.515625 -4.175781 0.65625 -4.800781 0.9375 -5.34375 C 1.21875 -5.882812 1.597656 -6.304688 2.078125 -6.609375 C 2.554688 -6.921875 3.085938 -7.078125 3.671875 -7.078125 C 4.035156 -7.078125 4.375 -7.019531 4.6875 -6.90625 C 5 -6.800781 5.269531 -6.660156 5.5 -6.484375 C 5.726562 -6.316406 5.90625 -6.140625 6.03125 -5.953125 C 6.164062 -5.773438 6.234375 -5.628906 6.234375 -5.515625 L 5.765625 -5.34375 L 5.765625 -6.296875 C 5.765625 -6.515625 5.835938 -6.695312 5.984375 -6.84375 C 6.128906 -7 6.3125 -7.078125 6.53125 -7.078125 Z M 3.90625 -1.296875 C 4.289062 -1.296875 4.625 -1.390625 4.90625 -1.578125 C 5.195312 -1.773438 5.421875 -2.035156 5.578125 -2.359375 C 5.742188 -2.691406 5.828125 -3.0625 5.828125 -3.46875 C 5.828125 -3.882812 5.742188 -4.253906 5.578125 -4.578125 C 5.421875 -4.910156 5.195312 -5.171875 4.90625 -5.359375 C 4.625 -5.554688 4.289062 -5.65625 3.90625 -5.65625 C 3.539062 -5.65625 3.210938 -5.554688 2.921875 -5.359375 C 2.640625 -5.171875 2.414062 -4.910156 2.25 -4.578125 C 2.09375 -4.253906 2.015625 -3.882812 2.015625 -3.46875 C 2.015625 -3.0625 2.09375 -2.691406 2.25 -2.359375 C 2.414062 -2.035156 2.640625 -1.773438 2.921875 -1.578125 C 3.210938 -1.390625 3.539062 -1.296875 3.90625 -1.296875 Z M 3.90625 -1.296875 "/></g></g></g><g fill="#f8fbfd" fill-opacity="1"><g transform="translate(236.489711, 217.647773)"><g/></g></g><g fill="#f8fbfd" fill-opacity="1"><g transform="translate(241.896689, 217.647773)"><g><path d="M 4.5 -7.078125 C 5.1875 -7.078125 5.695312 -6.910156 6.03125 -6.578125 C 6.363281 -6.242188 6.582031 -5.816406 6.6875 -5.296875 L 6.46875 -5.40625 L 6.5625 -5.609375 C 6.664062 -5.816406 6.828125 -6.035156 7.046875 -6.265625 C 7.265625 -6.492188 7.523438 -6.6875 7.828125 -6.84375 C 8.140625 -7 8.484375 -7.078125 8.859375 -7.078125 C 9.484375 -7.078125 9.957031 -6.941406 10.28125 -6.671875 C 10.613281 -6.410156 10.835938 -6.054688 10.953125 -5.609375 C 11.078125 -5.160156 11.140625 -4.664062 11.140625 -4.125 L 11.140625 -0.796875 C 11.140625 -0.566406 11.066406 -0.375 10.921875 -0.21875 C 10.773438 -0.0703125 10.585938 0 10.359375 0 C 10.128906 0 9.941406 -0.0703125 9.796875 -0.21875 C 9.648438 -0.375 9.578125 -0.566406 9.578125 -0.796875 L 9.578125 -4.125 C 9.578125 -4.40625 9.539062 -4.660156 9.46875 -4.890625 C 9.40625 -5.117188 9.28125 -5.300781 9.09375 -5.4375 C 8.914062 -5.582031 8.65625 -5.65625 8.3125 -5.65625 C 7.988281 -5.65625 7.707031 -5.582031 7.46875 -5.4375 C 7.238281 -5.300781 7.0625 -5.117188 6.9375 -4.890625 C 6.820312 -4.660156 6.765625 -4.40625 6.765625 -4.125 L 6.765625 -0.796875 C 6.765625 -0.566406 6.691406 -0.375 6.546875 -0.21875 C 6.398438 -0.0703125 6.21875 0 6 0 C 5.769531 0 5.582031 -0.0703125 5.4375 -0.21875 C 5.289062 -0.375 5.21875 -0.566406 5.21875 -0.796875 L 5.21875 -4.125 C 5.21875 -4.40625 5.179688 -4.660156 5.109375 -4.890625 C 5.035156 -5.117188 4.90625 -5.300781 4.71875 -5.4375 C 4.539062 -5.582031 4.285156 -5.65625 3.953125 -5.65625 C 3.617188 -5.65625 3.332031 -5.582031 3.09375 -5.4375 C 2.863281 -5.300781 2.691406 -5.117188 2.578125 -4.890625 C 2.460938 -4.660156 2.40625 -4.40625 2.40625 -4.125 L 2.40625 -0.796875 C 2.40625 -0.566406 2.332031 -0.375 2.1875 -0.21875 C 2.039062 -0.0703125 1.851562 0 1.625 0 C 1.394531 0 1.207031 -0.0703125 1.0625 -0.21875 C 0.914062 -0.375 0.84375 -0.566406 0.84375 -0.796875 L 0.84375 -6.15625 C 0.84375 -6.382812 0.914062 -6.570312 1.0625 -6.71875 C 1.207031 -6.875 1.394531 -6.953125 1.625 -6.953125 C 1.851562 -6.953125 2.039062 -6.875 2.1875 -6.71875 C 2.332031 -6.570312 2.40625 -6.382812 2.40625 -6.15625 L 2.40625 -5.609375 L 2.203125 -5.640625 C 2.285156 -5.785156 2.394531 -5.941406 2.53125 -6.109375 C 2.675781 -6.285156 2.847656 -6.445312 3.046875 -6.59375 C 3.242188 -6.738281 3.460938 -6.851562 3.703125 -6.9375 C 3.941406 -7.03125 4.207031 -7.078125 4.5 -7.078125 Z M 4.5 -7.078125 "/></g></g></g><g fill="#f8fbfd" fill-opacity="1"><g transform="translate(255.647108, 217.647773)"><g><path d="M 4.125 0.125 C 3.382812 0.125 2.742188 -0.0234375 2.203125 -0.328125 C 1.660156 -0.640625 1.242188 -1.054688 0.953125 -1.578125 C 0.660156 -2.109375 0.515625 -2.707031 0.515625 -3.375 C 0.515625 -4.15625 0.671875 -4.820312 0.984375 -5.375 C 1.304688 -5.925781 1.722656 -6.347656 2.234375 -6.640625 C 2.742188 -6.929688 3.285156 -7.078125 3.859375 -7.078125 C 4.304688 -7.078125 4.722656 -6.984375 5.109375 -6.796875 C 5.503906 -6.617188 5.851562 -6.375 6.15625 -6.0625 C 6.457031 -5.75 6.695312 -5.382812 6.875 -4.96875 C 7.0625 -4.550781 7.15625 -4.109375 7.15625 -3.640625 C 7.144531 -3.429688 7.0625 -3.257812 6.90625 -3.125 C 6.75 -3 6.566406 -2.9375 6.359375 -2.9375 L 1.390625 -2.9375 L 1 -4.234375 L 5.765625 -4.234375 L 5.484375 -3.984375 L 5.484375 -4.328125 C 5.460938 -4.578125 5.375 -4.800781 5.21875 -5 C 5.0625 -5.195312 4.863281 -5.351562 4.625 -5.46875 C 4.382812 -5.59375 4.128906 -5.65625 3.859375 -5.65625 C 3.597656 -5.65625 3.351562 -5.617188 3.125 -5.546875 C 2.90625 -5.484375 2.710938 -5.367188 2.546875 -5.203125 C 2.378906 -5.035156 2.25 -4.8125 2.15625 -4.53125 C 2.0625 -4.257812 2.015625 -3.910156 2.015625 -3.484375 C 2.015625 -3.015625 2.109375 -2.617188 2.296875 -2.296875 C 2.492188 -1.972656 2.742188 -1.722656 3.046875 -1.546875 C 3.359375 -1.378906 3.691406 -1.296875 4.046875 -1.296875 C 4.367188 -1.296875 4.625 -1.320312 4.8125 -1.375 C 5 -1.425781 5.148438 -1.488281 5.265625 -1.5625 C 5.390625 -1.632812 5.5 -1.695312 5.59375 -1.75 C 5.75 -1.832031 5.894531 -1.875 6.03125 -1.875 C 6.21875 -1.875 6.375 -1.804688 6.5 -1.671875 C 6.625 -1.546875 6.6875 -1.394531 6.6875 -1.21875 C 6.6875 -0.988281 6.566406 -0.773438 6.328125 -0.578125 C 6.109375 -0.390625 5.789062 -0.222656 5.375 -0.078125 C 4.96875 0.0546875 4.550781 0.125 4.125 0.125 Z M 4.125 0.125 "/></g></g></g><g fill="#f8fbfd" fill-opacity="1"><g transform="translate(265.082853, 217.647773)"><g><path d="M 2.53125 -0.796875 C 2.53125 -0.566406 2.453125 -0.375 2.296875 -0.21875 C 2.148438 -0.0703125 1.960938 0 1.734375 0 C 1.523438 0 1.34375 -0.0703125 1.1875 -0.21875 C 1.039062 -0.375 0.96875 -0.566406 0.96875 -0.796875 L 0.96875 -8.828125 C 0.96875 -9.054688 1.046875 -9.242188 1.203125 -9.390625 C 1.359375 -9.546875 1.546875 -9.625 1.765625 -9.625 C 1.992188 -9.625 2.175781 -9.546875 2.3125 -9.390625 C 2.457031 -9.242188 2.53125 -9.054688 2.53125 -8.828125 Z M 2.53125 -0.796875 "/></g></g></g><g fill="#f8fbfd" fill-opacity="1"><g transform="translate(270.359872, 217.647773)"><g><path d="M 4.5 -7.078125 C 5.125 -7.078125 5.597656 -6.941406 5.921875 -6.671875 C 6.242188 -6.410156 6.460938 -6.054688 6.578125 -5.609375 C 6.703125 -5.160156 6.765625 -4.664062 6.765625 -4.125 L 6.765625 -0.796875 C 6.765625 -0.566406 6.691406 -0.375 6.546875 -0.21875 C 6.398438 -0.0703125 6.21875 0 6 0 C 5.769531 0 5.582031 -0.0703125 5.4375 -0.21875 C 5.289062 -0.375 5.21875 -0.566406 5.21875 -0.796875 L 5.21875 -4.125 C 5.21875 -4.40625 5.179688 -4.660156 5.109375 -4.890625 C 5.035156 -5.117188 4.90625 -5.300781 4.71875 -5.4375 C 4.539062 -5.582031 4.285156 -5.65625 3.953125 -5.65625 C 3.617188 -5.65625 3.332031 -5.582031 3.09375 -5.4375 C 2.863281 -5.300781 2.691406 -5.117188 2.578125 -4.890625 C 2.460938 -4.660156 2.40625 -4.40625 2.40625 -4.125 L 2.40625 -0.796875 C 2.40625 -0.566406 2.332031 -0.375 2.1875 -0.21875 C 2.039062 -0.0703125 1.851562 0 1.625 0 C 1.394531 0 1.207031 -0.0703125 1.0625 -0.21875 C 0.914062 -0.375 0.84375 -0.566406 0.84375 -0.796875 L 0.84375 -8.828125 C 0.84375 -9.054688 0.914062 -9.242188 1.0625 -9.390625 C 1.207031 -9.546875 1.394531 -9.625 1.625 -9.625 C 1.851562 -9.625 2.039062 -9.546875 2.1875 -9.390625 C 2.332031 -9.242188 2.40625 -9.054688 2.40625 -8.828125 L 2.40625 -5.609375 L 2.203125 -5.640625 C 2.285156 -5.785156 2.394531 -5.941406 2.53125 -6.109375 C 2.675781 -6.285156 2.847656 -6.445312 3.046875 -6.59375 C 3.242188 -6.738281 3.460938 -6.851562 3.703125 -6.9375 C 3.941406 -7.03125 4.207031 -7.078125 4.5 -7.078125 Z M 4.5 -7.078125 "/></g></g></g><g fill="#f8fbfd" fill-opacity="1"><g transform="translate(279.743615, 217.647773)"><g><path d="M 7.59375 -3.46875 C 7.59375 -2.757812 7.429688 -2.132812 7.109375 -1.59375 C 6.796875 -1.050781 6.375 -0.628906 5.84375 -0.328125 C 5.3125 -0.0234375 4.71875 0.125 4.0625 0.125 C 3.394531 0.125 2.796875 -0.0234375 2.265625 -0.328125 C 1.734375 -0.628906 1.304688 -1.050781 0.984375 -1.59375 C 0.671875 -2.132812 0.515625 -2.757812 0.515625 -3.46875 C 0.515625 -4.175781 0.671875 -4.800781 0.984375 -5.34375 C 1.304688 -5.882812 1.734375 -6.304688 2.265625 -6.609375 C 2.796875 -6.921875 3.394531 -7.078125 4.0625 -7.078125 C 4.71875 -7.078125 5.3125 -6.921875 5.84375 -6.609375 C 6.375 -6.304688 6.796875 -5.882812 7.109375 -5.34375 C 7.429688 -4.800781 7.59375 -4.175781 7.59375 -3.46875 Z M 6.03125 -3.46875 C 6.03125 -3.914062 5.941406 -4.300781 5.765625 -4.625 C 5.585938 -4.945312 5.347656 -5.195312 5.046875 -5.375 C 4.753906 -5.5625 4.425781 -5.65625 4.0625 -5.65625 C 3.695312 -5.65625 3.363281 -5.5625 3.0625 -5.375 C 2.757812 -5.195312 2.519531 -4.945312 2.34375 -4.625 C 2.164062 -4.300781 2.078125 -3.914062 2.078125 -3.46875 C 2.078125 -3.039062 2.164062 -2.660156 2.34375 -2.328125 C 2.519531 -2.003906 2.757812 -1.75 3.0625 -1.5625 C 3.363281 -1.382812 3.695312 -1.296875 4.0625 -1.296875 C 4.425781 -1.296875 4.753906 -1.382812 5.046875 -1.5625 C 5.347656 -1.75 5.585938 -2.003906 5.765625 -2.328125 C 5.941406 -2.660156 6.03125 -3.039062 6.03125 -3.46875 Z M 6.03125 -3.46875 "/></g></g></g><g fill="#f8fbfd" fill-opacity="1"><g transform="translate(289.621216, 217.647773)"><g><path d="M 1.625 0 C 1.394531 0 1.207031 -0.0703125 1.0625 -0.21875 C 0.914062 -0.375 0.84375 -0.566406 0.84375 -0.796875 L 0.84375 -6.15625 C 0.84375 -6.382812 0.914062 -6.570312 1.0625 -6.71875 C 1.207031 -6.875 1.394531 -6.953125 1.625 -6.953125 C 1.851562 -6.953125 2.039062 -6.875 2.1875 -6.71875 C 2.332031 -6.570312 2.40625 -6.382812 2.40625 -6.15625 L 2.40625 -4.9375 L 2.3125 -5.8125 C 2.40625 -6.019531 2.523438 -6.203125 2.671875 -6.359375 C 2.828125 -6.523438 3 -6.660156 3.1875 -6.765625 C 3.382812 -6.867188 3.59375 -6.945312 3.8125 -7 C 4.03125 -7.050781 4.242188 -7.078125 4.453125 -7.078125 C 4.710938 -7.078125 4.929688 -7.003906 5.109375 -6.859375 C 5.285156 -6.710938 5.375 -6.539062 5.375 -6.34375 C 5.375 -6.0625 5.300781 -5.851562 5.15625 -5.71875 C 5.007812 -5.59375 4.851562 -5.53125 4.6875 -5.53125 C 4.519531 -5.53125 4.367188 -5.5625 4.234375 -5.625 C 4.097656 -5.6875 3.941406 -5.71875 3.765625 -5.71875 C 3.609375 -5.71875 3.453125 -5.679688 3.296875 -5.609375 C 3.140625 -5.535156 2.992188 -5.421875 2.859375 -5.265625 C 2.722656 -5.109375 2.613281 -4.914062 2.53125 -4.6875 C 2.445312 -4.457031 2.40625 -4.1875 2.40625 -3.875 L 2.40625 -0.796875 C 2.40625 -0.566406 2.332031 -0.375 2.1875 -0.21875 C 2.039062 -0.0703125 1.851562 0 1.625 0 Z M 1.625 0 "/></g></g></g><g fill="#f8fbfd" fill-opacity="1"><g transform="translate(297.029571, 217.647773)"><g><path d="M 1.734375 -2.875 C 1.441406 -2.875 1.285156 -3.035156 1.265625 -3.359375 L 0.890625 -8.15625 C 0.867188 -8.414062 0.9375 -8.632812 1.09375 -8.8125 C 1.257812 -9 1.472656 -9.09375 1.734375 -9.09375 C 1.992188 -9.09375 2.203125 -9 2.359375 -8.8125 C 2.523438 -8.632812 2.597656 -8.414062 2.578125 -8.15625 L 2.203125 -3.359375 C 2.179688 -3.035156 2.023438 -2.875 1.734375 -2.875 Z M 1.65625 0 C 1.40625 0 1.210938 -0.0664062 1.078125 -0.203125 C 0.941406 -0.335938 0.875 -0.53125 0.875 -0.78125 L 0.875 -1 C 0.875 -1.25 0.941406 -1.441406 1.078125 -1.578125 C 1.210938 -1.710938 1.40625 -1.78125 1.65625 -1.78125 L 1.8125 -1.78125 C 2.070312 -1.78125 2.265625 -1.710938 2.390625 -1.578125 C 2.523438 -1.441406 2.59375 -1.25 2.59375 -1 L 2.59375 -0.78125 C 2.59375 -0.53125 2.523438 -0.335938 2.390625 -0.203125 C 2.265625 -0.0664062 2.070312 0 1.8125 0 Z M 1.65625 0 "/></g></g></g></svg>