<svg xmlns="http://www.w3.org/2000/svg" xmlns:xlink="http://www.w3.org/1999/xlink" width="960" zoomAndPan="magnify" viewBox="0 0 720 164.249993" height="219" preserveAspectRatio="xMidYMid meet" version="1.0"><defs><clipPath id="db2754d3ce"><path d="M 1.636719 0 L 166 0 L 166 163.503906 L 1.636719 163.503906 Z M 1.636719 0 " clip-rule="nonzero"/></clipPath><clipPath id="5db8b95226"><path d="M 368 33 L 452 33 L 452 163.503906 L 368 163.503906 Z M 368 33 " clip-rule="nonzero"/></clipPath><clipPath id="54c9e7f3cc"><path d="M 635 33 L 718.363281 33 L 718.363281 125 L 635 125 Z M 635 33 " clip-rule="nonzero"/></clipPath></defs><g clip-path="url(#db2754d3ce)"><path fill="#343434" d="M 93.527344 -0.269531 C 95.550781 -0.269531 97.574219 -0.269531 99.597656 -0.273438 C 103.8125 -0.273438 108.027344 -0.265625 112.242188 -0.25 C 117.113281 -0.234375 121.984375 -0.234375 126.859375 -0.238281 C 131.5625 -0.242188 136.265625 -0.238281 140.972656 -0.230469 C 142.96875 -0.226562 144.964844 -0.226562 146.960938 -0.226562 C 149.738281 -0.226562 152.515625 -0.21875 155.292969 -0.203125 C 156.121094 -0.207031 156.949219 -0.207031 157.804688 -0.210938 C 158.558594 -0.207031 159.308594 -0.199219 160.085938 -0.195312 C 160.742188 -0.191406 161.394531 -0.191406 162.070312 -0.191406 C 163.648438 0 163.648438 0 165.140625 1.492188 C 165.289062 3.59375 165.34375 5.621094 165.335938 7.722656 C 165.335938 8.375 165.339844 9.027344 165.34375 9.699219 C 165.351562 11.898438 165.347656 14.09375 165.34375 16.292969 C 165.347656 17.863281 165.351562 19.433594 165.355469 21.003906 C 165.367188 25.28125 165.367188 29.558594 165.363281 33.832031 C 165.363281 37.398438 165.367188 40.960938 165.371094 44.527344 C 165.378906 52.933594 165.378906 61.339844 165.375 69.742188 C 165.371094 78.429688 165.378906 87.113281 165.394531 95.796875 C 165.410156 103.238281 165.414062 110.683594 165.410156 118.128906 C 165.410156 122.582031 165.410156 127.03125 165.421875 131.484375 C 165.429688 135.667969 165.429688 139.851562 165.421875 144.039062 C 165.417969 145.578125 165.421875 147.117188 165.425781 148.65625 C 165.433594 150.75 165.429688 152.84375 165.417969 154.9375 C 165.425781 155.554688 165.429688 156.167969 165.4375 156.800781 C 165.398438 160.894531 165.398438 160.894531 164.109375 162.753906 C 162.226562 163.921875 161.359375 163.957031 159.167969 163.503906 C 157.289062 162.179688 155.703125 160.597656 154.082031 158.976562 C 153.148438 158.078125 152.214844 157.179688 151.277344 156.28125 C 150.832031 155.847656 150.390625 155.414062 149.929688 154.96875 C 148.507812 153.597656 147.039062 152.289062 145.542969 150.996094 C 143.378906 149.132812 141.261719 147.226562 139.148438 145.304688 C 136.628906 143.027344 134.058594 140.847656 131.402344 138.726562 C 127.398438 135.496094 123.664062 132.015625 119.953125 128.449219 C 116.78125 125.425781 113.449219 122.757812 109.890625 120.199219 C 109.097656 120.613281 108.304688 121.027344 107.488281 121.457031 C 106.421875 122 105.359375 122.546875 104.292969 123.09375 C 103.773438 123.367188 103.253906 123.640625 102.71875 123.917969 C 92.878906 128.929688 81.738281 129.410156 71.070312 126.921875 C 67.949219 125.90625 65.042969 124.648438 62.109375 123.1875 C 61.167969 122.730469 61.167969 122.730469 60.207031 122.261719 C 49.058594 116.246094 41.519531 105.832031 37.847656 93.882812 C 34.957031 81.441406 36.214844 68.394531 42.777344 57.261719 C 50.515625 46.253906 61.058594 38.109375 74.449219 35.441406 C 87.914062 33.609375 100.097656 36.175781 111.261719 44.050781 C 118.480469 49.585938 123.582031 56.5625 127.0625 64.953125 C 127.300781 65.519531 127.539062 66.085938 127.785156 66.667969 C 130.210938 73.714844 130.9375 84.6875 128.558594 91.832031 C 126.550781 92.214844 125.246094 92.09375 123.503906 91.007812 C 121.980469 89.800781 120.550781 88.535156 119.132812 87.210938 C 118.371094 86.503906 118.371094 86.503906 117.597656 85.78125 C 113.902344 82.121094 112.410156 79.164062 111.722656 73.945312 C 110.835938 67.984375 107.121094 62.304688 102.480469 58.566406 C 94.539062 52.886719 86.625 51.316406 77.042969 52.261719 C 68.832031 54.050781 62.507812 58.960938 57.628906 65.699219 C 53.378906 72.789062 52.515625 80.738281 54.03125 88.765625 C 56.070312 96.476562 60.46875 102.703125 67.195312 106.996094 C 74.835938 111.226562 82.761719 112.65625 91.320312 110.402344 C 97.726562 108.195312 102.617188 104.777344 106.992188 99.625 C 108.398438 98.550781 108.398438 98.550781 110.265625 98.617188 C 112.261719 99.34375 113.339844 100.089844 114.886719 101.535156 C 115.394531 102.007812 115.90625 102.476562 116.433594 102.960938 C 117.261719 103.734375 117.261719 103.734375 118.105469 104.523438 C 119.347656 105.644531 120.589844 106.765625 121.835938 107.882812 C 122.46875 108.453125 123.101562 109.023438 123.75 109.609375 C 125.820312 111.464844 127.914062 113.296875 130.011719 115.121094 C 131.738281 116.640625 133.4375 118.1875 135.136719 119.734375 C 138.535156 122.808594 142.050781 125.71875 145.613281 128.601562 C 147.222656 129.90625 147.222656 129.90625 147.96875 130.652344 C 148.214844 92.710938 148.460938 54.769531 148.714844 15.679688 C 137.257812 15.753906 125.800781 15.832031 114 15.910156 C 110.402344 15.929688 106.808594 15.949219 103.105469 15.96875 C 99.835938 15.996094 99.835938 15.996094 96.566406 16.027344 C 95.128906 16.039062 93.691406 16.046875 92.253906 16.050781 C 71.988281 16.117188 52.882812 19.898438 37.976562 34.566406 C 37.316406 35.230469 36.660156 35.898438 35.980469 36.582031 C 35.4375 37.109375 34.890625 37.636719 34.332031 38.179688 C 23.042969 49.851562 17.757812 66.761719 17.835938 82.714844 C 18.289062 100.402344 25.988281 117.417969 38.777344 129.625 C 51.230469 140.488281 66.089844 146.636719 82.6875 146.613281 C 83.464844 146.613281 84.242188 146.613281 85.046875 146.613281 C 92.390625 146.503906 99.785156 145.539062 106.546875 142.5 C 109.078125 141.613281 110.957031 141.554688 113.625 141.851562 C 115.878906 143.269531 115.878906 143.269531 117.964844 145.117188 C 119.011719 146.027344 119.011719 146.027344 120.078125 146.957031 C 121.183594 147.96875 122.269531 149.003906 123.332031 150.066406 C 123.359375 151.859375 123.359375 151.859375 122.585938 153.796875 C 120.898438 154.90625 119.46875 155.679688 117.636719 156.457031 C 117.136719 156.679688 116.636719 156.902344 116.121094 157.128906 C 110.949219 159.34375 105.6875 160.824219 100.1875 162.011719 C 99.40625 162.179688 98.628906 162.347656 97.824219 162.519531 C 76.109375 166.507812 54.359375 161.191406 36.167969 149.085938 C 17.964844 135.890625 5.800781 117.097656 1.9375 94.871094 C -1.140625 71.425781 4.191406 49.40625 18.574219 30.65625 C 24.292969 23.710938 30.53125 17.429688 38.21875 12.691406 C 38.992188 12.203125 39.765625 11.710938 40.5625 11.207031 C 45.179688 8.367188 49.867188 6.082031 54.972656 4.246094 C 55.441406 4.074219 55.914062 3.902344 56.398438 3.726562 C 58.039062 3.167969 59.691406 2.703125 61.363281 2.238281 C 62.378906 1.953125 62.378906 1.953125 63.417969 1.664062 C 73.335938 -0.714844 83.386719 -0.308594 93.527344 -0.269531 Z M 93.527344 -0.269531 " fill-opacity="1" fill-rule="nonzero"/></g><g clip-path="url(#5db8b95226)"><path fill="#343434" d="M 421.03125 33.472656 C 421.847656 33.46875 422.660156 33.464844 423.503906 33.464844 C 425.214844 33.460938 426.925781 33.457031 428.636719 33.457031 C 431.261719 33.457031 433.890625 33.441406 436.519531 33.429688 C 438.183594 33.425781 439.851562 33.425781 441.515625 33.425781 C 442.304688 33.417969 443.089844 33.414062 443.902344 33.410156 C 444.992188 33.410156 444.992188 33.410156 446.101562 33.414062 C 446.742188 33.414062 447.378906 33.414062 448.039062 33.410156 C 449.589844 33.597656 449.589844 33.597656 451.085938 35.089844 C 451.273438 36.675781 451.273438 36.675781 451.277344 38.675781 C 451.285156 39.433594 451.289062 40.191406 451.292969 40.96875 C 451.292969 41.804688 451.292969 42.640625 451.289062 43.5 C 451.292969 44.375 451.296875 45.253906 451.300781 46.15625 C 451.308594 48.566406 451.3125 50.980469 451.308594 53.390625 C 451.308594 55.410156 451.3125 57.429688 451.316406 59.449219 C 451.324219 64.226562 451.324219 69.003906 451.320312 73.78125 C 451.316406 78.683594 451.324219 83.582031 451.339844 88.484375 C 451.355469 92.707031 451.359375 96.929688 451.355469 101.152344 C 451.355469 103.667969 451.355469 106.179688 451.367188 108.695312 C 451.472656 141.175781 451.472656 141.175781 440.117188 153.027344 C 430.035156 161.898438 416.917969 163.652344 403.957031 163.644531 C 403.203125 163.644531 402.449219 163.644531 401.671875 163.644531 C 386.152344 163.523438 386.152344 163.523438 383.890625 161.261719 C 384.214844 155.734375 385.136719 147.328125 389.117188 143.34375 C 391.257812 143.222656 391.257812 143.222656 393.984375 143.304688 C 394.988281 143.324219 395.996094 143.34375 397 143.359375 C 398.574219 143.398438 400.148438 143.4375 401.722656 143.488281 C 409.234375 143.714844 417.429688 143.785156 423.703125 139.050781 C 428.820312 134.085938 429.433594 127.625 429.5625 120.867188 C 429.59375 116.414062 429.539062 111.960938 429.433594 107.507812 C 429.148438 107.957031 428.863281 108.40625 428.566406 108.867188 C 424.117188 115.714844 418.863281 121.035156 410.945312 123.617188 C 403.140625 125.101562 395.164062 124.460938 388.371094 120.199219 C 378.304688 112.460938 371.171875 102.296875 368.960938 89.589844 C 367.777344 75.871094 369.1875 62.886719 377.996094 51.769531 C 379.65625 49.875 381.367188 48.070312 383.144531 46.289062 C 383.601562 45.8125 384.0625 45.335938 384.535156 44.84375 C 394.625 35.144531 407.671875 33.484375 421.03125 33.472656 Z M 396.582031 62.714844 C 394.851562 64.84375 393.429688 67.03125 392.101562 69.433594 C 391.847656 69.890625 391.59375 70.351562 391.332031 70.824219 C 388.667969 76.605469 388.90625 83.984375 391.078125 89.871094 C 394.3125 96.769531 399.105469 102.179688 406.242188 105.128906 C 413.375 107.464844 420.101562 107.039062 426.867188 103.730469 C 429.238281 102.542969 429.238281 102.542969 430.179688 101.535156 C 430.25 100.09375 430.265625 98.648438 430.265625 97.203125 C 430.265625 96.277344 430.265625 95.347656 430.265625 94.394531 C 430.261719 93.375 430.257812 92.355469 430.253906 91.335938 C 430.25 90.300781 430.25 89.265625 430.25 88.226562 C 430.246094 85.496094 430.238281 82.761719 430.230469 80.027344 C 430.222656 77.238281 430.21875 74.453125 430.214844 71.664062 C 430.207031 66.191406 430.195312 60.71875 430.179688 55.246094 C 427.308594 55.210938 424.441406 55.191406 421.570312 55.171875 C 420.359375 55.15625 420.359375 55.15625 419.121094 55.140625 C 410.652344 55.097656 402.75 56.363281 396.582031 62.714844 Z M 396.582031 62.714844 " fill-opacity="1" fill-rule="nonzero"/></g><path fill="#343434" d="M 291.617188 33.304688 C 294.1875 33.316406 296.761719 33.304688 299.335938 33.289062 C 300.972656 33.292969 302.613281 33.292969 304.253906 33.300781 C 305.019531 33.292969 305.789062 33.289062 306.578125 33.285156 C 307.289062 33.292969 307.996094 33.300781 308.726562 33.308594 C 309.347656 33.308594 309.972656 33.308594 310.613281 33.3125 C 312.644531 33.671875 313.195312 34.222656 314.457031 35.835938 C 314.734375 37.460938 314.734375 37.460938 314.730469 39.382812 C 314.738281 40.113281 314.742188 40.84375 314.746094 41.59375 C 314.738281 42.394531 314.730469 43.191406 314.722656 44.015625 C 314.726562 44.859375 314.726562 45.703125 314.730469 46.570312 C 314.730469 49.363281 314.71875 52.15625 314.703125 54.949219 C 314.699219 56.882812 314.699219 58.816406 314.699219 60.753906 C 314.695312 64.808594 314.683594 68.867188 314.667969 72.925781 C 314.644531 78.136719 314.636719 83.347656 314.636719 88.558594 C 314.632812 92.554688 314.625 96.550781 314.617188 100.546875 C 314.613281 102.46875 314.609375 104.390625 314.605469 106.3125 C 314.601562 108.992188 314.589844 111.675781 314.578125 114.355469 C 314.578125 115.15625 314.578125 115.957031 314.574219 116.785156 C 314.570312 117.511719 314.566406 118.238281 314.5625 118.988281 C 314.5625 119.621094 314.558594 120.257812 314.554688 120.910156 C 314.457031 122.441406 314.457031 122.441406 313.710938 123.933594 C 310.367188 123.957031 307.023438 123.96875 303.679688 123.980469 C 302.722656 123.988281 301.769531 123.992188 300.785156 124 C 299.878906 124.003906 298.96875 124.003906 298.035156 124.007812 C 297.195312 124.011719 296.355469 124.015625 295.488281 124.019531 C 293.554688 123.933594 293.554688 123.933594 292.808594 123.1875 C 292.691406 122.078125 292.621094 120.964844 292.570312 119.847656 C 292.539062 119.175781 292.507812 118.503906 292.476562 117.8125 C 292.445312 117.109375 292.417969 116.402344 292.386719 115.675781 C 292.355469 114.964844 292.324219 114.257812 292.289062 113.527344 C 292.210938 111.769531 292.132812 110.011719 292.058594 108.253906 C 291.769531 108.726562 291.480469 109.195312 291.183594 109.679688 C 286.820312 116.660156 281.390625 121.023438 273.503906 123.648438 C 266.441406 124.910156 259.5625 124.378906 253.238281 120.949219 C 252.5 120.546875 251.757812 120.148438 250.996094 119.734375 C 240.605469 111.507812 234.132812 101.507812 231.871094 88.414062 C 230.292969 74.273438 233.625 61.007812 242.515625 49.835938 C 246.683594 44.984375 251.007812 41.566406 256.644531 38.589844 C 257.085938 38.347656 257.53125 38.101562 257.988281 37.851562 C 268.328125 32.722656 280.386719 33.242188 291.617188 33.304688 Z M 258.558594 64.019531 C 253.78125 69.957031 251.960938 77.09375 252.652344 84.648438 C 254.179688 93.09375 259.257812 98.429688 265.808594 103.527344 C 269.574219 105.851562 273.339844 106.304688 277.6875 106.296875 C 278.210938 106.296875 278.734375 106.296875 279.273438 106.296875 C 284.285156 106.1875 289.15625 105.1875 292.808594 101.535156 C 293.027344 99.511719 293.027344 99.511719 292.976562 97.117188 C 292.976562 95.726562 292.976562 95.726562 292.976562 94.308594 C 292.96875 93.292969 292.960938 92.28125 292.953125 91.265625 C 292.949219 90.230469 292.949219 89.195312 292.945312 88.15625 C 292.941406 85.429688 292.925781 82.703125 292.910156 79.976562 C 292.894531 77.195312 292.886719 74.410156 292.878906 71.628906 C 292.863281 66.167969 292.839844 60.707031 292.808594 55.246094 C 290.085938 55.203125 287.363281 55.175781 284.640625 55.15625 C 283.496094 55.136719 283.496094 55.136719 282.328125 55.117188 C 272.886719 55.054688 265.253906 56.949219 258.558594 64.019531 Z M 258.558594 64.019531 " fill-opacity="1" fill-rule="nonzero"/><g clip-path="url(#54c9e7f3cc)"><path fill="#343434" d="M 688.308594 33.496094 C 689.125 33.496094 689.941406 33.496094 690.78125 33.496094 C 692.492188 33.496094 694.203125 33.496094 695.914062 33.5 C 698.542969 33.503906 701.171875 33.5 703.796875 33.496094 C 705.464844 33.496094 707.128906 33.496094 708.796875 33.496094 C 709.582031 33.496094 710.371094 33.496094 711.183594 33.492188 C 712.269531 33.496094 712.269531 33.496094 713.378906 33.5 C 714.339844 33.5 714.339844 33.5 715.320312 33.5 C 716.871094 33.597656 716.871094 33.597656 718.363281 34.34375 C 718.382812 45.914062 718.394531 57.484375 718.402344 69.054688 C 718.40625 74.429688 718.410156 79.800781 718.417969 85.171875 C 718.425781 89.855469 718.433594 94.535156 718.433594 99.214844 C 718.433594 101.695312 718.4375 104.175781 718.441406 106.65625 C 718.449219 109.417969 718.449219 112.183594 718.449219 114.945312 C 718.449219 115.773438 718.453125 116.601562 718.457031 117.457031 C 718.457031 118.203125 718.453125 118.953125 718.453125 119.726562 C 718.453125 120.378906 718.453125 121.035156 718.457031 121.707031 C 718.363281 123.1875 718.363281 123.1875 717.617188 123.933594 C 716.1875 124.007812 714.753906 124.03125 713.324219 124.035156 C 712.453125 124.035156 711.585938 124.035156 710.6875 124.035156 C 709.773438 124.035156 708.855469 124.03125 707.910156 124.027344 C 706.535156 124.03125 706.535156 124.03125 705.136719 124.035156 C 704.265625 124.035156 703.394531 124.035156 702.5 124.035156 C 701.695312 124.03125 700.890625 124.03125 700.058594 124.03125 C 698.207031 123.933594 698.207031 123.933594 697.460938 123.1875 C 697.34375 122.078125 697.273438 120.964844 697.222656 119.847656 C 697.191406 119.175781 697.160156 118.503906 697.128906 117.8125 C 697.097656 117.109375 697.070312 116.402344 697.039062 115.675781 C 697.007812 114.964844 696.972656 114.257812 696.941406 113.527344 C 696.863281 111.769531 696.785156 110.011719 696.710938 108.253906 C 696.417969 108.65625 696.121094 109.054688 695.816406 109.464844 C 695.425781 109.996094 695.03125 110.523438 694.625 111.070312 C 694.238281 111.59375 693.847656 112.113281 693.449219 112.652344 C 689.136719 118.238281 683.695312 122.664062 676.554688 123.933594 C 666.484375 124.613281 659.421875 123.445312 651.503906 116.707031 C 641.792969 107.507812 636.339844 95.984375 635.976562 82.601562 C 635.859375 69.210938 639.464844 57.589844 648.839844 47.777344 C 660.011719 36.546875 672.875 33.46875 688.308594 33.496094 Z M 665.355469 61.96875 C 664.886719 62.398438 664.417969 62.828125 663.933594 63.269531 C 659.132812 68.164062 657.070312 74.253906 656.769531 81.050781 C 657.070312 88 659.828125 94.273438 664.609375 99.296875 C 670.886719 105.027344 676.480469 106.449219 684.929688 106.289062 C 689.429688 105.855469 694.179688 104.8125 697.460938 101.535156 C 697.679688 99.511719 697.679688 99.511719 697.628906 97.117188 C 697.628906 95.726562 697.628906 95.726562 697.628906 94.308594 C 697.621094 93.292969 697.613281 92.28125 697.605469 91.265625 C 697.601562 90.230469 697.601562 89.195312 697.597656 88.15625 C 697.59375 85.429688 697.578125 82.703125 697.5625 79.976562 C 697.546875 77.195312 697.539062 74.410156 697.53125 71.628906 C 697.515625 66.167969 697.492188 60.707031 697.460938 55.246094 C 694.644531 55.183594 691.828125 55.140625 689.011719 55.109375 C 687.835938 55.078125 687.835938 55.078125 686.632812 55.050781 C 678.410156 54.976562 671.496094 56.257812 665.355469 61.96875 Z M 665.355469 61.96875 " fill-opacity="1" fill-rule="nonzero"/></g><path fill="#343434" d="M 530.019531 41.816406 C 540.195312 50.746094 545.148438 61.796875 546.507812 75.171875 C 547.234375 89.175781 543.910156 101.980469 534.796875 112.921875 C 527.191406 121.015625 517.085938 124.589844 506.148438 125.578125 C 494.949219 125.820312 484.136719 122.601562 475.394531 115.488281 C 466.078125 106.550781 461.636719 94.390625 461.234375 81.683594 C 461.0625 67.488281 464.417969 54.84375 474.496094 44.355469 C 489.160156 30.972656 514.203125 29.589844 530.019531 41.816406 Z M 488.761719 58.296875 C 483.867188 64.703125 482.894531 71.890625 482.90625 79.746094 C 482.910156 80.472656 482.910156 81.199219 482.910156 81.945312 C 483 87.203125 483.605469 91.644531 486.175781 96.308594 C 486.621094 97.125 487.066406 97.941406 487.527344 98.785156 C 491.445312 103.597656 495.714844 106.914062 501.996094 107.71875 C 507.285156 107.941406 511.75 106.59375 516.175781 103.730469 C 522.414062 97.871094 524.359375 90.03125 525.179688 81.773438 C 525.464844 72.519531 523.054688 62.992188 516.785156 55.996094 C 512.410156 52.476562 507.710938 51.125 502.148438 51.285156 C 496.746094 51.980469 492.402344 54.277344 488.761719 58.296875 Z M 488.761719 58.296875 " fill-opacity="1" fill-rule="nonzero"/><path fill="#343434" d="M 574.0625 -0.015625 C 574.660156 -0.015625 575.261719 -0.0117188 575.878906 -0.0078125 C 576.5625 -0.00390625 576.5625 -0.00390625 577.257812 0 C 577.261719 0.472656 577.261719 0.941406 577.265625 1.425781 C 577.324219 12.90625 577.394531 24.386719 577.472656 35.863281 C 577.511719 41.414062 577.542969 46.964844 577.574219 52.515625 C 577.597656 57.359375 577.628906 62.199219 577.664062 67.039062 C 577.683594 69.601562 577.699219 72.160156 577.707031 74.722656 C 577.722656 77.585938 577.742188 80.453125 577.765625 83.316406 C 577.769531 84.15625 577.769531 85 577.769531 85.867188 C 577.835938 92.132812 578.191406 97.707031 581.738281 103.03125 C 581.738281 103.523438 581.738281 104.015625 581.738281 104.523438 C 582.246094 104.722656 582.753906 104.921875 583.277344 105.128906 C 585.765625 106.136719 588.230469 107.195312 590.695312 108.253906 C 590.738281 110.835938 590.765625 113.417969 590.789062 116 C 590.800781 116.738281 590.816406 117.472656 590.828125 118.230469 C 590.835938 119.285156 590.835938 119.285156 590.84375 120.359375 C 590.855469 121.332031 590.855469 121.332031 590.867188 122.324219 C 590.695312 123.933594 590.695312 123.933594 589.203125 125.425781 C 580.3125 125.820312 571.292969 123.144531 564.566406 117.214844 C 558.765625 110.589844 556.253906 103.144531 556.261719 94.382812 C 556.261719 93.574219 556.261719 92.761719 556.261719 91.929688 C 556.261719 91.050781 556.265625 90.171875 556.269531 89.269531 C 556.269531 88.335938 556.269531 87.402344 556.269531 86.441406 C 556.269531 83.894531 556.273438 81.347656 556.277344 78.796875 C 556.28125 76.132812 556.28125 73.464844 556.285156 70.800781 C 556.285156 65.753906 556.292969 60.710938 556.300781 55.664062 C 556.308594 49.917969 556.3125 44.175781 556.316406 38.429688 C 556.324219 26.613281 556.335938 14.800781 556.351562 2.988281 C 559.425781 1.933594 562.335938 1.148438 565.546875 0.652344 C 566.328125 0.527344 567.109375 0.402344 567.917969 0.273438 C 570.007812 0.0546875 571.964844 -0.0273438 574.0625 -0.015625 Z M 574.0625 -0.015625 " fill-opacity="1" fill-rule="nonzero"/><path fill="#343434" d="M 350.292969 0 C 351.519531 1.222656 351.140625 2.621094 351.148438 4.3125 C 351.152344 5.082031 351.160156 5.851562 351.164062 6.648438 C 351.167969 7.5 351.167969 8.355469 351.171875 9.234375 C 351.175781 10.128906 351.179688 11.023438 351.1875 11.941406 C 351.195312 13.890625 351.207031 15.839844 351.210938 17.789062 C 351.222656 20.871094 351.242188 23.957031 351.261719 27.042969 C 351.3125 35.816406 351.359375 44.585938 351.398438 53.359375 C 351.417969 58.203125 351.445312 63.042969 351.476562 67.886719 C 351.492188 70.449219 351.507812 73.007812 351.515625 75.570312 C 351.523438 78.433594 351.542969 81.296875 351.5625 84.160156 C 351.5625 85.003906 351.5625 85.84375 351.5625 86.714844 C 351.625 93.308594 352.308594 99.070312 356.265625 104.523438 C 357.996094 105.601562 359.527344 106.117188 361.492188 106.761719 C 363.734375 107.507812 363.734375 107.507812 364.480469 109.003906 C 364.65625 111.488281 364.617188 113.976562 364.621094 116.46875 C 364.628906 117.160156 364.636719 117.855469 364.648438 118.566406 C 364.648438 119.230469 364.648438 119.890625 364.652344 120.574219 C 364.65625 121.183594 364.65625 121.789062 364.660156 122.417969 C 364.480469 123.933594 364.480469 123.933594 362.988281 125.425781 C 354.097656 125.820312 345.078125 123.144531 338.347656 117.214844 C 332.816406 110.894531 330.039062 103.582031 330.046875 95.191406 C 330.046875 94.375 330.042969 93.558594 330.042969 92.71875 C 330.046875 91.832031 330.050781 90.945312 330.050781 90.03125 C 330.050781 89.09375 330.050781 88.152344 330.050781 87.183594 C 330.050781 84.613281 330.054688 82.042969 330.0625 79.46875 C 330.066406 76.78125 330.066406 74.089844 330.066406 71.402344 C 330.070312 66.3125 330.074219 61.222656 330.082031 56.132812 C 330.089844 50.335938 330.09375 44.542969 330.097656 38.746094 C 330.105469 26.824219 330.121094 14.90625 330.136719 2.988281 C 336.628906 0.761719 343.417969 -0.398438 350.292969 0 Z M 350.292969 0 " fill-opacity="1" fill-rule="nonzero"/><path fill="#343434" d="M 606.671875 33.414062 C 607.40625 33.417969 608.140625 33.421875 608.894531 33.425781 C 609.691406 33.425781 610.488281 33.425781 611.308594 33.429688 C 612.144531 33.4375 612.980469 33.445312 613.839844 33.457031 C 615.09375 33.457031 615.09375 33.457031 616.371094 33.457031 C 622.589844 33.492188 622.589844 33.492188 624.292969 34.34375 C 624.3125 46.109375 624.324219 57.875 624.332031 69.640625 C 624.335938 75.101562 624.339844 80.566406 624.347656 86.027344 C 624.355469 90.789062 624.363281 95.546875 624.363281 100.308594 C 624.363281 102.828125 624.367188 105.351562 624.371094 107.871094 C 624.378906 110.683594 624.378906 113.492188 624.378906 116.304688 C 624.378906 117.144531 624.382812 117.988281 624.386719 118.855469 C 624.386719 119.617188 624.382812 120.378906 624.382812 121.160156 C 624.382812 121.828125 624.382812 122.492188 624.386719 123.179688 C 624.292969 124.679688 624.292969 124.679688 623.546875 125.425781 C 620.457031 125.617188 617.355469 125.566406 614.261719 125.566406 C 613.386719 125.578125 612.511719 125.585938 611.609375 125.59375 C 610.777344 125.597656 609.945312 125.597656 609.085938 125.597656 C 608.316406 125.601562 607.546875 125.605469 606.753906 125.609375 C 604.882812 125.425781 604.882812 125.425781 603.386719 123.933594 C 603.199219 122.367188 603.199219 122.367188 603.199219 120.390625 C 603.195312 119.644531 603.191406 118.898438 603.1875 118.125 C 603.1875 117.304688 603.191406 116.480469 603.195312 115.632812 C 603.191406 114.769531 603.191406 113.902344 603.1875 113.011719 C 603.179688 110.144531 603.183594 107.273438 603.191406 104.40625 C 603.1875 102.417969 603.1875 100.433594 603.1875 98.449219 C 603.183594 94.28125 603.1875 90.113281 603.195312 85.945312 C 603.203125 81.125 603.199219 76.300781 603.191406 71.480469 C 603.183594 67.34375 603.183594 63.207031 603.1875 59.070312 C 603.191406 56.597656 603.1875 54.128906 603.183594 51.65625 C 603.179688 48.902344 603.1875 46.144531 603.195312 43.390625 C 603.191406 42.566406 603.1875 41.746094 603.1875 40.898438 C 603.191406 40.148438 603.195312 39.402344 603.199219 38.632812 C 603.199219 37.980469 603.199219 37.328125 603.199219 36.65625 C 603.488281 34.265625 604.320312 33.652344 606.671875 33.414062 Z M 606.671875 33.414062 " fill-opacity="1" fill-rule="nonzero"/><path fill="#343434" d="M 624.292969 0 C 624.3125 3.28125 624.324219 6.566406 624.335938 9.847656 C 624.339844 10.964844 624.34375 12.082031 624.347656 13.199219 C 624.359375 14.800781 624.363281 16.40625 624.367188 18.007812 C 624.371094 19.457031 624.371094 19.457031 624.378906 20.933594 C 624.292969 23.144531 624.292969 23.144531 623.546875 23.890625 C 620.457031 24.078125 617.355469 24.027344 614.261719 24.03125 C 613.386719 24.039062 612.511719 24.050781 611.609375 24.058594 C 610.777344 24.058594 609.945312 24.0625 609.085938 24.0625 C 608.316406 24.066406 607.546875 24.070312 606.753906 24.074219 C 604.882812 23.890625 604.882812 23.890625 603.386719 22.398438 C 603.21875 20.445312 603.21875 20.445312 603.242188 18.003906 C 603.246094 17.132812 603.253906 16.265625 603.257812 15.367188 C 603.269531 14.453125 603.28125 13.539062 603.296875 12.597656 C 603.300781 11.679688 603.308594 10.761719 603.316406 9.8125 C 603.332031 7.539062 603.359375 5.261719 603.386719 2.988281 C 606.460938 1.933594 609.371094 1.148438 612.582031 0.652344 C 613.363281 0.527344 614.144531 0.402344 614.953125 0.273438 C 618.078125 -0.0546875 621.152344 -0.0546875 624.292969 0 Z M 624.292969 0 " fill-opacity="1" fill-rule="nonzero"/></svg>